<svg width="136" height="98" viewBox="0 0 136 98" fill="none" xmlns="http://www.w3.org/2000/svg">
<rect x="0.200704" y="0.724288" width="111.044" height="44.5717" rx="22.2858" transform="matrix(0.885424 0.464784 -0.519922 0.854213 30.423 3.13145)" fill="white" stroke="#054F43" stroke-width="1.09824"/>
<path d="M46.2944 39.9863C46.0767 40.3439 45.7841 40.6697 45.4167 40.9636C45.0532 41.2595 44.6344 41.487 44.1604 41.6462C43.6902 41.8075 43.1779 41.8705 42.6236 41.8351C42.0754 41.7981 41.5039 41.6235 40.9092 41.3113C40.1175 40.8957 39.5516 40.3602 39.2116 39.7048C38.8738 39.0457 38.7513 38.3177 38.844 37.5207C38.9405 36.7258 39.2416 35.9129 39.7474 35.082C40.2531 34.2511 40.8466 33.5942 41.5279 33.1111C42.2131 32.6301 42.9456 32.3558 43.7256 32.2884C44.5056 32.2209 45.2914 32.395 46.0832 32.8106C46.7436 33.1573 47.2352 33.5677 47.558 34.042C47.8847 34.5183 48.0749 35.0139 48.1284 35.5287C48.1858 36.0456 48.14 36.5353 47.991 36.9979C47.9008 37.2799 47.7855 37.5365 47.6448 37.7675L45.8432 36.8217C45.9112 36.71 45.9673 36.5969 46.0115 36.4824C46.1385 36.1901 46.197 35.9013 46.1873 35.616C46.1775 35.3306 46.0942 35.0656 45.9373 34.821C45.7865 34.5747 45.5528 34.3685 45.2361 34.2022C44.8654 34.0076 44.4728 33.9367 44.0584 33.9896C43.644 34.0425 43.2257 34.2359 42.8034 34.5697C42.381 34.9036 41.9726 35.3946 41.578 36.043C41.1811 36.695 40.9364 37.277 40.844 37.7889C40.7538 38.2971 40.79 38.7316 40.9527 39.0922C41.1176 39.4492 41.3854 39.725 41.7562 39.9196C42.0227 40.0595 42.2866 40.1366 42.548 40.1509C42.8132 40.1672 43.0653 40.1299 43.3041 40.039C43.5468 39.95 43.7694 39.8186 43.9721 39.6448C44.1786 39.473 44.3521 39.2715 44.4927 39.0405L46.2944 39.9863ZM47.6426 44.8311C47.1946 44.5959 46.8369 44.3172 46.5693 43.9948C46.3057 43.6745 46.1547 43.3323 46.1165 42.9681C46.0783 42.6039 46.1725 42.2355 46.3993 41.8629C46.6556 41.4418 46.984 41.1619 47.3844 41.023C47.7849 40.8842 48.224 40.8492 48.7019 40.9182C49.1858 40.9854 49.6731 41.1183 50.1638 41.3169C50.8782 41.6083 51.3787 41.7948 51.6654 41.8765C51.9559 41.9601 52.1408 41.9368 52.2202 41.8064C52.2225 41.8026 52.2247 41.7989 52.227 41.7952C52.3608 41.5754 52.3562 41.3443 52.2132 41.1021C52.074 40.8619 51.8094 40.6394 51.4193 40.4346C51.0061 40.2177 50.6452 40.1241 50.3366 40.1539C50.0341 40.1819 49.7933 40.3431 49.6142 40.6375L47.8473 39.71C48.1376 39.2331 48.5157 38.9006 48.9818 38.7126C49.4517 38.5267 49.9674 38.4705 50.5291 38.544C51.093 38.6139 51.6646 38.8009 52.2439 39.105C52.7846 39.3888 53.236 39.7314 53.598 40.1329C53.9624 40.5306 54.1872 40.9608 54.2725 41.4235C54.3616 41.8882 54.2577 42.3646 53.9606 42.8527C53.913 42.9309 53.8654 43.0092 53.8177 43.0874C53.7724 43.1619 53.7259 43.2383 53.6783 43.3166L52.3992 45.418C52.3062 45.5707 52.2205 45.7199 52.1421 45.8656C52.0698 46.0095 52.0158 46.1484 51.9803 46.2821C51.9395 46.4328 51.922 46.5662 51.9278 46.6823C51.9336 46.7984 51.9456 46.8834 51.9638 46.9372L50.1969 46.0097C50.1857 45.9694 50.1761 45.8931 50.1681 45.7807C50.1639 45.6703 50.1754 45.551 50.2026 45.4227C50.2356 45.2679 50.2802 45.1193 50.3364 44.9767C50.3987 44.8325 50.4843 44.6709 50.5932 44.4921L50.8143 44.9326C50.5564 45.1217 50.2515 45.2419 49.8993 45.293C49.5533 45.3424 49.1847 45.3284 48.7936 45.2509C48.4086 45.1717 48.025 45.0318 47.6426 44.8311ZM48.9126 43.7869C49.1946 43.9349 49.4867 44.0243 49.7889 44.0551C50.0973 44.0843 50.3934 44.0332 50.6772 43.9019C50.9609 43.7707 51.2071 43.5336 51.4157 43.1908L51.7797 42.5928L51.9707 43.2461C51.6613 43.2018 51.3205 43.1212 50.9483 43.0044C50.5821 42.886 50.2228 42.7563 49.8702 42.6155C49.4536 42.446 49.1185 42.3561 48.8648 42.3459C48.6173 42.3339 48.4278 42.436 48.2962 42.6521C48.1715 42.857 48.1604 43.0552 48.263 43.2467C48.3678 43.4345 48.5844 43.6146 48.9126 43.7869ZM52.9072 47.4324L56.5198 41.497L58.3215 42.4428L57.0765 44.4883L56.8418 44.0701C57.0543 43.813 57.2881 43.5964 57.5429 43.4205C57.7978 43.2446 58.0662 43.1175 58.3482 43.0394C58.6324 42.9575 58.9257 42.932 59.228 42.9629C59.5341 42.9957 59.8455 43.0953 60.1622 43.2615C60.4094 43.3913 60.5911 43.5113 60.7075 43.6215C60.83 43.73 60.9029 43.8028 60.9263 43.8396L59.6852 45.2382C59.6618 45.2014 59.6027 45.131 59.5079 45.0272C59.4132 44.9234 59.2711 44.8218 59.0819 44.7224C58.7729 44.5602 58.4836 44.4747 58.2138 44.4658C57.944 44.457 57.6944 44.5029 57.4649 44.6037C57.2415 44.7027 57.0415 44.8387 56.865 45.0115C56.6885 45.1843 56.5379 45.3732 56.4131 45.5781L54.7089 48.3781L52.9072 47.4324ZM56.7499 52.6722L61.849 44.2945L63.6507 45.2402L58.5515 53.6179L56.7499 52.6722ZM61.8565 52.3071C61.3699 52.0517 60.9998 51.6927 60.7462 51.2302C60.4949 50.764 60.3769 50.2546 60.3921 49.7022C60.4096 49.146 60.5805 48.6015 60.9048 48.0687C60.9139 48.0538 60.9218 48.0407 60.9286 48.0295C60.9377 48.0146 60.9479 47.9979 60.9592 47.9792L61.7457 48.37C61.7389 48.3811 61.7321 48.3923 61.7253 48.4035C61.7185 48.4147 61.7117 48.4259 61.7049 48.437C61.5371 48.7127 61.4592 48.9914 61.4712 49.2731C61.4855 49.551 61.5687 49.8036 61.7208 50.0309C61.8729 50.2583 62.0687 50.4348 62.3081 50.5605C62.7021 50.7672 63.1232 50.8163 63.5716 50.7075C64.0262 50.597 64.4235 50.2623 64.7637 49.7035C65.1039 49.1446 65.2062 48.6624 65.0708 48.257C64.9376 47.8479 64.6721 47.5389 64.2743 47.3301C64.0349 47.2044 63.7711 47.1397 63.4829 47.1359C63.197 47.1284 62.9233 47.1887 62.6618 47.317C62.4003 47.4452 62.1845 47.649 62.0144 47.9284L61.2654 47.4762C61.5919 46.9397 62.0016 46.5304 62.4944 46.2483C62.9894 45.9624 63.5122 45.8067 64.0629 45.7811C64.6136 45.7555 65.1322 45.8704 65.6188 46.1259C66.117 46.3874 66.5098 46.7509 66.7972 47.2164C67.0869 47.6782 67.2267 48.2063 67.2165 48.8008C67.2101 49.3972 67.0085 50.0215 66.6117 50.6735C66.1967 51.3554 65.7161 51.8602 65.17 52.1881C64.6239 52.516 64.062 52.6856 63.4843 52.697C62.9089 52.7047 62.3663 52.5747 61.8565 52.3071ZM68.087 52.1707L68.7844 51.025L72.8627 53.1658L72.512 53.3652C72.5301 53.3354 72.5471 53.3074 72.563 53.2813C72.5812 53.2515 72.5982 53.2236 72.614 53.1975C72.7433 52.9851 72.8148 52.7547 72.8284 52.5062C72.8443 52.254 72.7796 52.0086 72.6343 51.7701C72.4952 51.5299 72.2557 51.3206 71.9158 51.1422C71.5759 50.9638 71.2393 50.8805 70.906 50.8924C70.5788 50.9025 70.2701 51.0035 69.9801 51.1954C69.6939 51.3893 69.4385 51.6707 69.214 52.0396C68.9827 52.4196 68.8461 52.7781 68.8041 53.1149C68.7683 53.4501 68.8297 53.7552 68.9884 54.0303C69.151 54.3074 69.4177 54.5432 69.7885 54.7378C70.0279 54.8635 70.247 54.9515 70.4457 55.0017C70.6467 55.0482 70.8217 55.0664 70.9707 55.0561C71.1235 55.0478 71.2538 55.0179 71.3616 54.9663C71.4695 54.9147 71.553 54.8529 71.6122 54.7807L73.3849 55.7112C73.2098 55.9487 72.9713 56.148 72.6694 56.3091C72.3697 56.4665 72.0239 56.57 71.6317 56.6199C71.2419 56.6659 70.816 56.6415 70.354 56.5465C69.8959 56.4535 69.4158 56.2752 68.9138 56.0117C68.234 55.6549 67.7206 55.2133 67.3734 54.6869C67.0285 54.1568 66.8576 53.5877 66.8607 52.9797C66.8661 52.368 67.0537 51.7585 67.4233 51.1512C67.7975 50.5364 68.2662 50.072 68.8293 49.758C69.3986 49.4423 70.0144 49.2887 70.6768 49.2972C71.3454 49.304 72.0137 49.4827 72.6818 49.8334C73.3654 50.1923 73.8758 50.6347 74.213 51.1608C74.5524 51.6831 74.7133 52.2518 74.6957 52.8669C74.6803 53.4783 74.4821 54.097 74.1011 54.7229C74.0444 54.8161 73.988 54.9045 73.932 54.9881C73.876 55.0718 73.8316 55.1321 73.799 55.169L68.087 52.1707ZM77.7877 60.4929L79.3219 57.9723C79.4081 57.8307 79.4863 57.7022 79.5566 57.5867C79.6269 57.4712 79.6904 57.3669 79.7471 57.2737C79.8968 57.0278 80 56.787 80.0568 56.5513C80.1159 56.312 80.0979 56.0862 80.0028 55.874C79.9077 55.6619 79.6999 55.4717 79.3793 55.3034C79.1013 55.1574 78.8225 55.0922 78.5429 55.1077C78.2673 55.1252 78.0085 55.2155 77.7665 55.3786C77.5246 55.5417 77.3163 55.7667 77.1417 56.0535L76.8544 55.4455C77.1674 54.9313 77.5576 54.5413 78.0252 54.2755C78.4928 54.0096 78.9904 53.8702 79.5182 53.8571C80.0497 53.8461 80.5569 53.9673 81.0397 54.2207C81.5456 54.4863 81.9007 54.803 82.1049 55.1707C82.3152 55.5368 82.393 55.9365 82.3382 56.3699C82.2895 56.8015 82.1234 57.2502 81.8399 57.716C81.7243 57.906 81.595 58.1183 81.4521 58.3531C81.3092 58.5878 81.163 58.8281 81.0133 59.074L79.5778 61.4325L77.7877 60.4929ZM73.4545 58.2183L77.0671 52.2829L78.863 53.2256L75.2504 59.161L73.4545 58.2183ZM83.7355 63.7773C83.4999 63.6536 83.2691 63.5054 83.043 63.3327C82.8185 63.1657 82.6333 62.9676 82.4873 62.7386C82.3475 62.5079 82.281 62.2444 82.2881 61.9482C82.2951 61.652 82.412 61.3176 82.6388 60.945C82.6887 60.863 82.7397 60.7792 82.7919 60.6935C82.844 60.6078 82.8962 60.5221 82.9483 60.4364L84.4689 57.9382L83.0496 57.1932L83.866 55.8518L84.2657 56.0616C84.4974 56.1833 84.6866 56.2703 84.8331 56.3226C84.9834 56.3769 85.1141 56.3841 85.2252 56.344C85.3423 56.3023 85.4604 56.2045 85.5795 56.0507C85.6986 55.8969 85.8455 55.6766 86.0201 55.3897L86.4759 54.6408L88.2775 55.5865L87.0869 57.5426L88.877 58.4822L88.0606 59.8236L86.2705 58.8839L84.9711 61.0189C84.9303 61.0859 84.8906 61.1511 84.852 61.2145C84.8135 61.2778 84.7761 61.3393 84.7398 61.3989C84.5833 61.656 84.4872 61.8809 84.4515 62.0735C84.4196 62.2682 84.5311 62.4324 84.786 62.5662C84.9135 62.6331 85.04 62.6848 85.1656 62.7212C85.2951 62.7597 85.3956 62.783 85.4671 62.791L84.6745 64.0932C84.573 64.0842 84.4409 64.0542 84.2783 64.0032C84.1134 63.956 83.9325 63.8807 83.7355 63.7773ZM86.3531 64.9891L89.9657 59.0537L91.7674 59.9995L90.5224 62.045L90.2877 61.6268C90.5002 61.3697 90.734 61.1531 90.9888 60.9772C91.2437 60.8013 91.5121 60.6742 91.7941 60.5961C92.0783 60.5142 92.3716 60.4887 92.6739 60.5196C92.98 60.5524 93.2914 60.652 93.6081 60.8182C93.8553 60.948 94.037 61.068 94.1534 61.1782C94.2759 61.2868 94.3488 61.3595 94.3722 61.3963L93.1311 62.795C93.1077 62.7581 93.0486 62.6877 92.9538 62.5839C92.8591 62.4801 92.717 62.3785 92.5278 62.2792C92.2188 62.117 91.9295 62.0314 91.6597 62.0226C91.3899 62.0137 91.1403 62.0596 90.9108 62.1604C90.6874 62.2595 90.4874 62.3954 90.3109 62.5682C90.1344 62.741 89.9838 62.9299 89.859 63.1348L88.1548 65.9349L86.3531 64.9891ZM90.6307 70.6194C90.4376 70.5181 90.2684 70.4194 90.1229 70.3234C89.9791 70.2332 89.8924 70.1705 89.8629 70.1353L90.6623 68.8219C90.6989 68.8706 90.7756 68.933 90.8924 69.009C91.0107 69.0908 91.1414 69.1693 91.2843 69.2443C91.4735 69.3436 91.6661 69.3955 91.8621 69.4001C92.0597 69.4104 92.2533 69.3769 92.4431 69.2995C92.6345 69.2279 92.8155 69.1189 92.9862 68.9725L93.2741 68.7254L94.8141 61.5988L96.6852 62.581L95.0606 68.1514L94.852 68.0419L99.101 63.8491L100.949 64.8191L95.0416 69.9408C94.5975 70.3271 94.1564 70.629 93.7183 70.8464C93.2802 71.0639 92.8125 71.1625 92.3152 71.1423C91.8179 71.1222 91.2564 70.9479 90.6307 70.6194Z" fill="#054F43"/>
</svg>
