<svg width="142" height="141" viewBox="0 0 142 141" fill="none" xmlns="http://www.w3.org/2000/svg">
<rect x="0.758732" y="0.251256" width="111.372" height="44.4273" rx="22.2137" transform="matrix(0.906464 -0.422284 0.47526 0.879845 8.90663 74.5127)" fill="white" stroke="#34C759" stroke-width="1.09824"/>
<path d="M47.977 67.4289L51.0906 65.9783L55.6771 74.4693L53.9335 75.2816L49.916 67.8441L49.964 67.8505L52.261 76.0607L49.8531 77.1824L44.1011 70.5602L44.1273 70.5264L48.151 77.9754L46.4014 78.7904L41.815 70.2995L44.9286 68.849L50.6533 75.7505L50.4992 75.8223L47.977 67.4289ZM59.3987 72.894C58.9401 73.1077 58.4925 73.2273 58.056 73.253C57.6235 73.2767 57.2338 73.2013 56.8871 73.0266C56.5403 72.8519 56.2633 72.5726 56.056 72.1889C55.8218 71.7552 55.7536 71.345 55.8516 70.9584C55.9495 70.5717 56.1618 70.2134 56.4884 69.8835C56.8168 69.548 57.2059 69.2467 57.6555 68.9796C58.3121 68.592 58.7564 68.3106 58.9884 68.1353C59.2242 67.9581 59.3059 67.8024 59.2334 67.6681C59.2313 67.6643 59.2292 67.6604 59.2271 67.6566C59.1048 67.4302 58.8958 67.3042 58.5999 67.2787C58.308 67.2514 57.9624 67.3307 57.5631 67.5168C57.14 67.7138 56.8562 67.9397 56.7117 68.1944C56.5691 68.4434 56.5796 68.7194 56.7434 69.0226L54.9345 69.8653C54.6692 69.3741 54.5817 68.896 54.6721 68.4312C54.7664 67.9646 55.0022 67.5353 55.3794 67.1434C55.7546 66.7477 56.2387 66.4117 56.8318 66.1354C57.3853 65.8775 57.9419 65.7215 58.5015 65.6674C59.0591 65.6094 59.5683 65.6771 60.0292 65.8707C60.494 66.0625 60.8622 66.4097 61.1338 66.9125C61.1773 66.993 61.2209 67.0736 61.2644 67.1542C61.3058 67.231 61.3483 67.3097 61.3919 67.3903L62.561 69.5547C62.646 69.7121 62.7319 69.8618 62.8186 70.004C62.9071 70.1404 63.0013 70.2599 63.1012 70.3623C63.2133 70.4782 63.3228 70.5664 63.4298 70.6271C63.5368 70.6877 63.6194 70.7261 63.6776 70.7422L61.8687 71.5849C61.8265 71.5709 61.7529 71.5355 61.648 71.4787C61.5471 71.4201 61.4468 71.3443 61.3471 71.2514C61.2271 71.1392 61.119 71.0215 61.0227 70.8982C60.9283 70.7693 60.8313 70.6127 60.7318 70.4285L61.2482 70.5049C61.2743 70.8098 61.2126 71.1124 61.063 71.4126C60.9153 71.7072 60.6984 71.9836 60.4123 72.2418C60.128 72.4943 59.7902 72.7117 59.3987 72.894ZM59.1696 71.3292C59.4582 71.1947 59.7001 71.0196 59.8953 70.8038C60.0924 70.5823 60.2109 70.3253 60.2509 70.0329C60.2909 69.7405 60.2156 69.4177 60.0248 69.0646L59.6921 68.4487L60.382 68.6677C60.1708 68.8814 59.9098 69.099 59.599 69.3207C59.29 69.5366 58.9749 69.7411 58.6535 69.934C58.271 70.1603 58.0048 70.3684 57.855 70.5582C57.707 70.7424 57.6932 70.9458 57.8134 71.1684C57.9274 71.3795 58.0984 71.4992 58.3265 71.5274C58.5525 71.5518 58.8335 71.4858 59.1696 71.3292ZM64.6434 70.2922L59.7833 61.2947L61.5269 60.4824L64.3099 65.6346L63.8486 65.6189L65.125 62.4161L67.3786 61.3662L65.7205 65.525L65.745 64.6634L70.6275 67.5045L68.6941 68.4052L65.0479 66.1626L65.5351 65.9789L65.0001 67.3521L64.7763 66.4981L66.3871 69.48L64.6434 70.2922ZM70.4392 64.4364L69.8018 63.2563L73.977 61.3112L73.9608 61.6934C73.9442 61.6627 73.9286 61.634 73.9141 61.6071C73.8975 61.5764 73.882 61.5476 73.8675 61.5207C73.7493 61.302 73.583 61.1177 73.3684 60.9679C73.1518 60.8142 72.8966 60.7266 72.6028 60.7049C72.3109 60.6776 71.991 60.7449 71.6431 60.907C71.2951 61.0691 71.034 61.282 70.8598 61.5457C70.6874 61.8038 70.6065 62.0984 70.6172 62.4297C70.6318 62.7591 70.7418 63.1138 70.947 63.4937C71.1584 63.8852 71.4031 64.1915 71.6809 64.4127C71.9607 64.6282 72.2675 64.7519 72.6014 64.7837C72.9392 64.8136 73.2979 64.7402 73.6775 64.5634C73.9226 64.4492 74.1227 64.3295 74.2779 64.2044C74.4309 64.0755 74.5441 63.9507 74.6175 63.83C74.6949 63.7075 74.7404 63.5903 74.7541 63.4782C74.7678 63.3661 74.7588 63.2671 74.7271 63.1809L76.5419 62.3355C76.6571 62.6037 76.703 62.8993 76.6796 63.2225C76.6541 63.5418 76.5549 63.8666 76.382 64.1969C76.207 64.5234 75.9489 64.8382 75.6078 65.1412C75.2707 65.4423 74.8451 65.7126 74.3311 65.9521C73.6352 66.2763 72.9558 66.4247 72.2927 66.3973C71.6276 66.3661 71.0242 66.1789 70.4824 65.8357C69.9386 65.4886 69.4978 65.0022 69.1599 64.3767C68.8178 63.7435 68.6626 63.1217 68.6942 62.5114C68.7276 61.8953 68.9318 61.3343 69.3067 60.8282C69.6835 60.3164 70.2139 59.9012 70.8979 59.5826C71.5978 59.2565 72.2763 59.111 72.9335 59.1458C73.5887 59.1769 74.1863 59.3716 74.7263 59.7301C75.2643 60.0847 75.7074 60.5844 76.0556 61.2291C76.1075 61.325 76.1552 61.4181 76.199 61.5082C76.2427 61.5983 76.272 61.6663 76.2869 61.7122L70.4392 64.4364ZM81.1196 62.7608C80.6729 62.9689 80.2678 63.0711 79.9046 63.0674C79.5393 63.0599 79.2093 62.9758 78.9147 62.8153C78.6201 62.6547 78.3604 62.4442 78.1357 62.1839C77.9109 61.9235 77.7177 61.6437 77.556 61.3443C77.4814 61.2062 77.4026 61.0603 77.3197 60.9068C77.2368 60.7533 77.1518 60.596 77.0647 60.4348L75.5193 57.5738L77.3578 56.7173L78.7509 59.2962C78.8213 59.4267 78.8898 59.5533 78.9561 59.6762C79.0224 59.799 79.0836 59.9122 79.1395 60.0158C79.2784 60.2729 79.4356 60.4951 79.611 60.6824C79.7864 60.8697 79.9884 60.9917 80.217 61.0485C80.4496 61.1035 80.7142 61.0619 81.0107 60.9238C81.2993 60.7893 81.502 60.5964 81.6186 60.3452C81.7332 60.09 81.7765 59.8129 81.7485 59.5137C81.7205 59.2145 81.635 58.9325 81.492 58.6677L82.2287 58.8361C82.436 59.2198 82.5675 59.6053 82.6232 59.9924C82.6829 60.3777 82.6694 60.7467 82.5827 61.0993C82.494 61.448 82.3268 61.7661 82.0812 62.0535C81.8395 62.339 81.519 62.5747 81.1196 62.7608ZM83.1213 61.6842L79.8191 55.5707L81.6576 54.7142L84.9599 60.8277L83.1213 61.6842ZM87.6981 62.7007L83.0369 54.0716L84.8814 53.2124L89.5425 61.8414L87.6981 62.7007ZM90.2036 58.5578C89.7054 58.7898 89.1793 58.874 88.6252 58.8103C88.0691 58.7427 87.5484 58.5482 87.063 58.2268C86.5755 57.9015 86.1835 57.4644 85.8871 56.9156C85.8788 56.9003 85.8715 56.8868 85.8653 56.8753C85.857 56.86 85.8477 56.8427 85.8373 56.8235L86.6227 56.436C86.6289 56.4475 86.6352 56.4591 86.6414 56.4706C86.6476 56.4821 86.6538 56.4936 86.66 56.5051C86.8134 56.7891 87.0193 57.0054 87.2778 57.154C87.5341 57.2988 87.8061 57.3762 88.0936 57.3864C88.3812 57.3965 88.6475 57.3445 88.8927 57.2303C89.296 57.0424 89.5733 56.7451 89.7247 56.3383C89.8781 55.9258 89.7992 55.4318 89.4883 54.8561C89.1773 54.2805 88.8031 53.9312 88.3656 53.8084C87.926 53.6817 87.5026 53.7133 87.0954 53.903C86.8503 54.0172 86.6461 54.1843 86.4829 54.4045C86.3177 54.6207 86.2198 54.8657 86.1894 55.1392C86.159 55.4127 86.2216 55.6934 86.3771 55.9813L85.5575 56.3054C85.259 55.7528 85.1202 55.2074 85.1413 54.6692C85.1603 54.1272 85.311 53.6367 85.5935 53.1976C85.876 52.7586 86.2663 52.4231 86.7645 52.191C87.2745 51.9534 87.8173 51.8542 88.3928 51.8936C88.9662 51.929 89.5158 52.1173 90.0415 52.4585C90.5712 52.7977 91.0174 53.3032 91.3802 53.9748C91.7595 54.6771 91.9444 55.3307 91.9346 55.9356C91.9249 56.5406 91.7649 57.069 91.4548 57.521C91.1426 57.969 90.7255 58.3146 90.2036 58.5578ZM58.7832 87.3385L56.373 77.8193L59.285 76.4627L66.0484 83.954L64.1624 84.8326L58.4137 78.2304L58.4256 78.2249L60.6692 86.4599L58.7832 87.3385ZM59.2855 84.6404L58.533 83.2473L62.6845 81.3133L63.437 82.7063L59.2855 84.6404ZM67.0977 83.4651L63.7955 77.3517L65.6399 76.4924L66.778 78.5993L66.274 78.5459C66.1621 78.2378 66.0981 77.9361 66.0822 77.6409C66.0662 77.3457 66.1015 77.0675 66.188 76.8063C66.2725 76.5412 66.4123 76.3007 66.6075 76.0849C66.8066 75.8672 67.0683 75.6829 67.3925 75.5318C67.6456 75.4139 67.8536 75.341 68.0167 75.3131C68.1816 75.2795 68.2871 75.264 68.333 75.2666L68.895 77.0078C68.8491 77.0052 68.7534 77.0114 68.608 77.0262C68.4627 77.0411 68.2931 77.0937 68.0994 77.184C67.7831 77.3313 67.5461 77.5065 67.3886 77.7096C67.2311 77.9127 67.1337 78.131 67.0965 78.3644C67.0612 78.5922 67.0718 78.8227 67.1284 79.0557C67.185 79.2887 67.2703 79.5108 67.3843 79.7218L68.9422 82.6059L67.0977 83.4651ZM75.7178 79.6079C75.4766 79.7203 75.2161 79.8152 74.9363 79.8927C74.6625 79.9722 74.3828 80.0041 74.0971 79.9882C73.8133 79.9667 73.541 79.8703 73.2801 79.6988C73.0192 79.5273 72.7851 79.2497 72.5778 78.8659C72.5322 78.7815 72.4856 78.6951 72.4379 78.6069C72.3902 78.5186 72.3426 78.4303 72.2949 78.3421L70.9049 75.7689L69.4519 76.4458L68.7056 75.0642L69.1149 74.8736C69.3521 74.7631 69.5347 74.666 69.6627 74.5823C69.7947 74.4968 69.8736 74.4 69.8993 74.292C69.927 74.1782 69.9051 74.0323 69.8336 73.8542C69.7622 73.6762 69.6466 73.4394 69.487 73.1439L69.0703 72.3725L70.9148 71.5132L72.0031 73.528L73.8357 72.6743L74.582 74.0559L72.7494 74.9096L73.9372 77.1086C73.9745 77.1777 74.0108 77.2449 74.0461 77.3101C74.0813 77.3754 74.1155 77.4387 74.1487 77.5001C74.2917 77.7649 74.4394 77.9651 74.5918 78.1006C74.7482 78.2343 74.9568 78.2404 75.2178 78.1188C75.3483 78.058 75.4646 77.9894 75.5668 77.913C75.673 77.8347 75.7495 77.7702 75.7964 77.7196L76.5209 79.0609C76.4565 79.1341 76.3565 79.2191 76.2207 79.316C76.0871 79.4167 75.9194 79.514 75.7178 79.6079ZM78.1814 78.3017L74.8791 72.1882L76.6999 71.34L80.0022 77.4535L78.1814 78.3017ZM75.2486 70.7696C74.9639 70.9022 74.6755 70.9454 74.3832 70.899C74.0948 70.8508 73.8792 70.6943 73.7361 70.4295C73.591 70.1608 73.5839 69.9048 73.7146 69.6613C73.8494 69.416 74.0591 69.2271 74.3437 69.0945C74.6324 68.96 74.9209 68.9169 75.2092 68.9651C75.5015 69.0115 75.7202 69.169 75.8653 69.4376C76.0104 69.7062 76.0156 69.9632 75.8808 70.2085C75.748 70.4481 75.5372 70.6352 75.2486 70.7696ZM84.053 75.7393C83.6774 75.9143 83.2928 76.0406 82.8992 76.1183C82.5057 76.1959 82.126 76.2167 81.7601 76.1806C81.3981 76.1427 81.0697 76.0387 80.775 75.8686C80.4821 75.6928 80.2465 75.4399 80.0682 75.1099C80.0599 75.0945 80.0506 75.0773 80.0402 75.0581C80.0278 75.035 80.0185 75.0178 80.0122 75.0063L81.8389 74.1553C81.8451 74.1668 81.8524 74.1802 81.8607 74.1956C81.8669 74.2071 81.8741 74.2205 81.8824 74.2359C82.0027 74.4585 82.1916 74.5746 82.4492 74.5843C82.7108 74.5921 83.0155 74.515 83.3635 74.3529C83.5453 74.2682 83.71 74.1699 83.8574 74.058C84.0067 73.9404 84.1129 73.8164 84.1761 73.6861C84.2412 73.5501 84.2396 73.4188 84.1712 73.2921C84.0613 73.0887 83.8669 72.9992 83.5881 73.0234C83.3131 73.0458 82.8978 73.1336 82.3422 73.2868C82.0287 73.3752 81.7009 73.4462 81.3587 73.5C81.0166 73.5537 80.6836 73.5695 80.3599 73.5474C80.0341 73.5214 79.7381 73.436 79.4717 73.291C79.2033 73.1423 78.9852 72.9125 78.8173 72.6016C78.5934 72.1872 78.5332 71.7781 78.6368 71.3743C78.7444 70.9688 78.9743 70.5927 79.3265 70.2461C79.6786 69.8995 80.1137 69.6056 80.6317 69.3643C81.1259 69.134 81.63 69 82.1441 68.9623C82.6561 68.9207 83.1254 68.9879 83.552 69.1638C83.9766 69.3359 84.3018 69.6311 84.5278 70.0494C84.5319 70.0571 84.5381 70.0686 84.5464 70.084C84.5547 70.0993 84.563 70.1147 84.5713 70.13L82.7624 70.9727C82.7541 70.9573 82.7469 70.9439 82.7406 70.9324C82.7344 70.9209 82.7292 70.9113 82.7251 70.9036C82.6422 70.7501 82.5234 70.6493 82.3688 70.6013C82.2181 70.5514 82.0532 70.5393 81.8742 70.5651C81.693 70.5871 81.5194 70.6367 81.3534 70.7141C81.2031 70.7841 81.0563 70.8741 80.9128 70.9841C80.7712 71.0885 80.6658 71.2049 80.5966 71.3332C80.5253 71.4577 80.5259 71.5871 80.5984 71.7214C80.6689 71.8519 80.7863 71.9317 80.9505 71.9609C81.1126 71.9862 81.315 71.976 81.5575 71.9303C81.798 71.8807 82.071 71.8136 82.3766 71.7288C82.6643 71.6477 82.9752 71.5773 83.3092 71.5177C83.6451 71.4525 83.9789 71.4291 84.3105 71.4475C84.644 71.4603 84.95 71.5411 85.2284 71.69C85.5086 71.8333 85.74 72.0737 85.9224 72.4115C86.1111 72.7607 86.1897 73.0987 86.1584 73.4255C86.1271 73.7523 86.0116 74.0607 85.8119 74.3507C85.6141 74.635 85.3609 74.8946 85.0524 75.1296C84.7499 75.3666 84.4167 75.5699 84.053 75.7393ZM91.1585 72.4147C90.9173 72.5271 90.6568 72.622 90.377 72.6995C90.1033 72.779 89.8235 72.8109 89.5379 72.7951C89.2541 72.7736 88.9817 72.6771 88.7209 72.5056C88.46 72.3341 88.2259 72.0565 88.0186 71.6727C87.973 71.5883 87.9263 71.5019 87.8787 71.4137C87.831 71.3254 87.7833 71.2371 87.7356 71.1489L86.3457 68.5757L84.8926 69.2526L84.1464 67.871L84.5556 67.6804C84.7928 67.5699 84.9754 67.4728 85.1035 67.3891C85.2354 67.3036 85.3143 67.2068 85.3401 67.0988C85.3677 66.985 85.3458 66.8391 85.2743 66.6611C85.2029 66.483 85.0874 66.2462 84.9277 65.9507L84.5111 65.1793L86.3555 64.3201L87.4439 66.3349L89.2764 65.4811L90.0227 66.8627L88.1901 67.7164L89.378 69.9154C89.4153 69.9845 89.4515 70.0517 89.4868 70.1169C89.522 70.1822 89.5562 70.2455 89.5894 70.3069C89.7324 70.5717 89.8802 70.7719 90.0326 70.9074C90.1889 71.0411 90.3976 71.0472 90.6585 70.9256C90.789 70.8648 90.9053 70.7962 91.0076 70.7198C91.1137 70.6415 91.1903 70.577 91.2371 70.5264L91.9616 71.8677C91.8973 71.9409 91.7972 72.0259 91.6615 72.1228C91.5278 72.2235 91.3602 72.3208 91.1585 72.4147Z" fill="#53B175"/>
</svg>
