<svg width="128" height="83" viewBox="0 0 128 83" fill="none" xmlns="http://www.w3.org/2000/svg">
<rect x="0.390401" y="0.65532" width="112.488" height="43.9285" rx="21.9643" transform="matrix(0.973546 0.228493 -0.262587 0.964908 14.6219 6.60762)" fill="white" stroke="#FFCC00" stroke-width="1.09824"/>
<path d="M44.2808 26.9075L45.4268 26.1825L44.3599 30.1029L43.8824 29.467L47.7233 30.3685L47.311 31.8836L43.4701 30.9821L44.2259 30.5954L43.0508 34.9135L41.0762 34.4501L43.6103 25.1383L49.3812 26.4927L48.9688 28.0078L44.2808 26.9075ZM49.956 36.6819C49.4634 36.5663 49.0451 36.3853 48.701 36.1389C48.3612 35.8935 48.1231 35.5981 47.9867 35.2526C47.8503 34.9072 47.8394 34.524 47.954 34.1031C48.0834 33.6276 48.3204 33.2712 48.665 33.0342C49.0096 32.7972 49.4196 32.6516 49.8951 32.5976C50.3761 32.5403 50.8782 32.5462 51.4015 32.6153C52.1641 32.7182 52.6935 32.773 52.9898 32.7799C53.2904 32.7877 53.4607 32.718 53.5008 32.5707C53.5019 32.5665 53.5031 32.5623 53.5042 32.5581C53.5718 32.3098 53.504 32.0856 53.3009 31.8857C53.102 31.6868 52.7882 31.537 52.3593 31.4364C51.9049 31.3297 51.5344 31.3301 51.2477 31.4374C50.9663 31.5415 50.7804 31.7598 50.69 32.0923L48.7472 31.6364C48.8938 31.0977 49.164 30.6775 49.5578 30.3759C49.9559 30.0753 50.4333 29.8896 50.9902 29.8188C51.5482 29.7438 52.1457 29.781 52.7826 29.9305C53.3771 30.0701 53.9024 30.2896 54.3585 30.5892C54.8157 30.8846 55.1485 31.247 55.3569 31.6765C55.5695 32.107 55.6008 32.5979 55.4508 33.1493C55.4267 33.2376 55.4027 33.326 55.3786 33.4144C55.3557 33.4986 55.3322 33.5849 55.3082 33.6732L54.6622 36.047C54.6153 36.2195 54.5743 36.3868 54.5392 36.5487C54.5096 36.7074 54.4961 36.8565 54.4988 36.9959C54.5012 37.1532 54.5211 37.2877 54.5584 37.3995C54.5958 37.5112 54.6305 37.591 54.6627 37.6389L52.72 37.1829C52.6983 37.1465 52.6682 37.0745 52.6297 36.9669C52.5954 36.8604 52.5736 36.7411 52.5644 36.6091C52.5535 36.4498 52.5554 36.2935 52.57 36.1403C52.59 35.9838 52.6275 35.8045 52.6825 35.6025L53.0145 35.9759C52.82 36.2258 52.5615 36.4204 52.239 36.5596C51.9219 36.6956 51.5659 36.7755 51.1709 36.7992C50.7813 36.8197 50.3764 36.7806 49.956 36.6819ZM50.8832 35.3414C51.1932 35.4141 51.4969 35.4272 51.7942 35.3806C52.0969 35.3307 52.3658 35.2058 52.6009 35.0057C52.8361 34.8057 53.0063 34.5121 53.1117 34.1249L53.2955 33.4494L53.6571 34.038C53.3494 34.0732 53.0016 34.0811 52.6139 34.0618C52.2315 34.0392 51.8525 34.004 51.477 33.9561C51.0325 33.8966 50.6876 33.894 50.4424 33.9484C50.2026 33.9996 50.0494 34.1472 49.983 34.3913C49.92 34.6228 49.9638 34.8189 50.1143 34.9796C50.266 35.1361 50.5223 35.2567 50.8832 35.3414ZM58.4742 38.6946C58.0708 38.5999 57.6948 38.4624 57.3463 38.2822C56.9979 38.1019 56.6996 37.8863 56.4516 37.6356C56.2079 37.3859 56.0356 37.1059 55.9348 36.7956C55.8394 36.4822 55.8409 36.1445 55.9394 35.7826C55.944 35.7657 55.9492 35.7468 55.9549 35.7258C55.9618 35.7005 55.9669 35.6816 55.9703 35.6689L57.9322 36.1294C57.9288 36.142 57.9247 36.1567 57.9202 36.1736C57.9167 36.1862 57.9127 36.2009 57.9081 36.2178C57.8417 36.4619 57.9013 36.6662 58.087 36.8306C58.2768 36.9961 58.5586 37.1227 58.9323 37.2104C59.1277 37.2562 59.3196 37.2811 59.5083 37.2851C59.7024 37.2859 59.8687 37.2555 60.0074 37.194C60.1515 37.1294 60.2425 37.0276 60.2803 36.8887C60.341 36.6656 60.2587 36.4784 60.0333 36.327C59.8122 36.1766 59.4404 35.9908 58.9178 35.7697C58.6216 35.6464 58.3268 35.5011 58.0335 35.3338C57.7402 35.1664 57.4804 34.9756 57.2541 34.7613C57.029 34.5428 56.8678 34.2968 56.7706 34.0232C56.6745 33.7454 56.6729 33.4361 56.7656 33.0952C56.8893 32.6406 57.1316 32.29 57.4923 32.0434C57.8574 31.7977 58.2931 31.6492 58.7994 31.5979C59.3058 31.5466 59.8372 31.5862 60.3934 31.7168C60.9242 31.8414 61.3949 32.0459 61.8054 32.3303C62.2171 32.6105 62.5205 32.9481 62.7156 33.3432C62.912 33.734 62.9477 34.1588 62.8229 34.6176C62.8206 34.626 62.8171 34.6386 62.8125 34.6554C62.808 34.6723 62.8034 34.6891 62.7988 34.7059L60.8561 34.25C60.8606 34.2331 60.8647 34.2184 60.8681 34.2058C60.8715 34.1932 60.8744 34.1826 60.8767 34.1742C60.9225 34.0059 60.9045 33.8561 60.8227 33.725C60.7452 33.5949 60.6305 33.4851 60.4787 33.3957C60.3279 33.3022 60.1634 33.2344 59.985 33.1926C59.8237 33.1547 59.6508 33.1343 59.4664 33.1313C59.2874 33.1251 59.127 33.1501 58.9851 33.2064C58.8445 33.2585 58.7541 33.3581 58.714 33.5055C58.6751 33.6485 58.7067 33.7813 58.8089 33.9038C58.9122 34.0221 59.0705 34.1376 59.2838 34.2504C59.4982 34.3589 59.7493 34.4738 60.0371 34.5951C60.309 34.7081 60.5906 34.8436 60.8819 35.0016C61.1786 35.1563 61.4444 35.3418 61.6792 35.5581C61.9194 35.7712 62.0912 36.0197 62.1946 36.3037C62.3034 36.5844 62.3074 36.91 62.2066 37.2804C62.1024 37.6634 61.9239 37.9707 61.6711 38.2024C61.4183 38.4341 61.1155 38.6004 60.7628 38.7012C60.4155 38.7988 60.0442 38.8437 59.6487 38.836C59.2564 38.8334 58.8649 38.7863 58.4742 38.6946ZM67.6552 40.6882L68.3046 38.3019C68.3276 38.2177 68.359 38.102 68.3991 37.9547C68.4392 37.8073 68.4799 37.6579 68.5211 37.5064C68.5623 37.3549 68.5956 37.2329 68.6208 37.1403C68.7605 36.6268 68.7747 36.2092 68.6635 35.8876C68.5534 35.5618 68.2499 35.3406 67.7531 35.224C67.4304 35.1482 67.1408 35.1497 66.8845 35.2283C66.6293 35.3027 66.4129 35.4422 66.2353 35.6468C66.0619 35.8524 65.9328 36.1109 65.848 36.4223L65.3813 35.8964C65.5336 35.3366 65.7881 34.8747 66.1447 34.5106C66.5024 34.1424 66.9262 33.8881 67.4161 33.7479C67.9103 33.6086 68.4377 33.6048 68.9982 33.7364C69.8262 33.9307 70.3825 34.3187 70.6669 34.9004C70.9525 35.4779 70.9785 36.1959 70.7448 37.0545C70.6853 37.2733 70.6137 37.5364 70.5301 37.8436C70.4464 38.1508 70.3497 38.5065 70.2397 38.9105L69.6298 41.1517L67.6552 40.6882ZM62.8908 39.57L65.576 29.7026L67.5506 30.166L64.8653 40.0334L62.8908 39.57ZM71.0252 41.4792L72.8497 34.7746L74.8052 35.2336L72.9806 41.9381L71.0252 41.4792ZM74.1215 33.9112C73.8157 33.8394 73.57 33.6967 73.3842 33.4829C73.2027 33.2702 73.1514 33.0186 73.2304 32.7282C73.3106 32.4336 73.485 32.2327 73.7536 32.1256C74.0264 32.0195 74.3157 32.0023 74.6214 32.0741C74.9314 32.1468 75.1772 32.2896 75.3587 32.5023C75.5445 32.7161 75.5973 32.9703 75.5171 33.2649C75.4369 33.5595 75.2604 33.7599 74.9876 33.866C74.7202 33.9689 74.4315 33.984 74.1215 33.9112ZM77.7848 43.2201C77.0544 43.0487 76.4518 42.7483 75.9768 42.3189C75.5018 41.8895 75.1783 41.377 75.006 40.7814C74.8392 40.1826 74.8492 39.5401 75.0359 38.8541C75.2214 38.1723 75.5402 37.6068 75.9922 37.1577C76.4496 36.7053 76.996 36.3992 77.6313 36.2394C78.2677 36.0754 78.9511 36.079 79.6815 36.2505C80.4119 36.4219 81.0151 36.7202 81.4913 37.1454C81.9685 37.5663 82.2905 38.0762 82.4574 38.6751C82.6296 39.2707 82.6229 39.9094 82.4374 40.5912C82.2507 41.2773 81.9286 41.8464 81.4712 42.2988C81.0192 42.7479 80.4744 43.0566 79.8368 43.2249C79.1992 43.3931 78.5152 43.3916 77.7848 43.2201ZM78.2074 41.6671C78.5514 41.7478 78.8725 41.7381 79.1708 41.638C79.4692 41.5379 79.7279 41.359 79.9471 41.1015C80.1674 40.8398 80.3308 40.5132 80.4373 40.1218C80.5438 39.7304 80.5659 39.3752 80.5037 39.0561C80.4426 38.7328 80.3058 38.4634 80.0934 38.2479C79.881 38.0323 79.6028 37.8842 79.2589 37.8035C78.9192 37.7238 78.5986 37.7314 78.2972 37.8263C78 37.9222 77.7419 38.0989 77.5227 38.3564C77.3047 38.6097 77.1424 38.9321 77.0359 39.3235C76.9294 39.7149 76.9061 40.0744 76.9661 40.4019C77.0272 40.7252 77.1634 40.9967 77.3746 41.2164C77.5901 41.4371 77.8677 41.5874 78.2074 41.6671ZM87.523 45.3512L88.2978 42.504C88.3413 42.3441 88.3808 42.1989 88.4163 42.0684C88.4518 41.9379 88.4839 41.8201 88.5126 41.7149C88.5881 41.4371 88.6208 41.1761 88.6104 40.9319C88.6012 40.6835 88.5221 40.4679 88.3731 40.2851C88.224 40.1024 87.9733 39.9697 87.6208 39.8869C87.3151 39.8152 87.0308 39.8223 86.7679 39.9084C86.5093 39.9955 86.2868 40.1492 86.1003 40.3696C85.9138 40.59 85.7765 40.8623 85.6883 41.1863L85.247 40.6664C85.4051 40.0856 85.6711 39.6062 86.045 39.2283C86.4189 38.8504 86.8562 38.5881 87.3569 38.4414C87.8618 38.2958 88.3797 38.2852 88.9105 38.4098C89.4668 38.5404 89.8929 38.759 90.1889 39.0658C90.4903 39.3694 90.6742 39.7394 90.7407 40.1759C90.8125 40.6092 90.7768 41.0888 90.6337 41.6149C90.5753 41.8296 90.51 42.0695 90.4378 42.3346C90.3657 42.5998 90.2918 42.8712 90.2162 43.149L89.4912 45.8132L87.523 45.3512ZM82.7585 44.233L84.583 37.5285L86.5576 37.9919L84.7331 44.6964L82.7585 44.233ZM33.7251 46.0698L36.2592 36.7579L39.2975 37.471C39.926 37.6185 40.4662 37.8662 40.9181 38.2141C41.3755 38.5587 41.7328 38.9806 41.99 39.4798C42.2526 39.9758 42.4063 40.5312 42.4513 41.1463C42.4962 41.7613 42.4254 42.4118 42.2387 43.0978C42.052 43.7839 41.781 44.3896 41.4256 44.9152C41.0703 45.4407 40.6491 45.868 40.162 46.197C39.6803 46.5227 39.1495 46.7384 38.5696 46.8441C37.9939 46.9508 37.3919 46.9304 36.7634 46.7829L33.7251 46.0698ZM35.8705 45.9554L35.233 44.8118L36.9209 45.2079C37.3796 45.3156 37.8279 45.2865 38.2661 45.1206C38.7096 44.9516 39.1038 44.6568 39.4487 44.2363C39.7947 43.8115 40.0559 43.2751 40.2323 42.6269C40.4098 41.9746 40.4533 41.3915 40.3627 40.8777C40.2733 40.3597 40.0755 39.9327 39.7694 39.5967C39.4687 39.2574 39.089 39.034 38.6304 38.9264L36.9424 38.5302L38.0884 37.8052L35.8705 45.9554ZM43.7759 45.487L44.1281 44.1928L48.6123 45.2452L48.3319 45.5287C48.3411 45.495 48.3497 45.4634 48.3577 45.434C48.3669 45.4003 48.3754 45.3687 48.3835 45.3393C48.4487 45.0994 48.4538 44.8565 48.3987 44.6108C48.3448 44.3608 48.2157 44.138 48.0114 43.9423C47.8126 43.7434 47.5263 43.6001 47.1526 43.5124C46.779 43.4246 46.4345 43.4289 46.1192 43.525C45.8093 43.6179 45.542 43.7948 45.3175 44.0555C45.0972 44.3172 44.9303 44.6564 44.8169 45.0731C44.7001 45.5024 44.6678 45.8866 44.7201 46.2257C44.7778 46.5616 44.9202 46.8436 45.1473 47.0715C45.3786 47.3004 45.6981 47.4627 46.1058 47.5584C46.3691 47.6202 46.6025 47.6503 46.8062 47.6489C47.0111 47.6432 47.1832 47.6165 47.3227 47.5686C47.4665 47.5218 47.5828 47.4595 47.6717 47.3819C47.7606 47.3043 47.8235 47.2227 47.8603 47.1373L49.8094 47.5948C49.7071 47.8708 49.5339 48.1257 49.2896 48.3594C49.0464 48.5889 48.7443 48.7776 48.3833 48.9257C48.0234 49.0696 47.6096 49.1539 47.1422 49.1785C46.6789 49.2041 46.1713 49.1521 45.6192 49.0225C44.8719 48.8471 44.2601 48.5468 43.784 48.1217C43.3091 47.6923 42.9897 47.1808 42.826 46.5871C42.6634 45.9893 42.6755 45.3473 42.8622 44.6613C43.0512 43.9669 43.3717 43.3951 43.8237 42.946C44.2811 42.4936 44.8274 42.1875 45.4627 42.0277C46.1034 41.8646 46.7911 41.8693 47.5257 42.0417C48.2774 42.2181 48.8864 42.52 49.3529 42.9474C49.8205 43.3706 50.1302 43.8843 50.282 44.4886C50.4349 45.0887 50.4152 45.7422 50.2227 46.4493C50.1941 46.5545 50.1645 46.655 50.1339 46.7508C50.1033 46.8466 50.0775 46.9167 50.0564 46.961L43.7759 45.487ZM53.3375 50.834C52.9341 50.7393 52.5582 50.6019 52.2097 50.4216C51.8612 50.2413 51.5629 50.0257 51.3149 49.775C51.0712 49.5253 50.8989 49.2453 50.7981 48.9351C50.7027 48.6216 50.7043 48.2839 50.8028 47.922C50.8073 47.9051 50.8125 47.8862 50.8182 47.8652C50.8251 47.8399 50.8302 47.821 50.8337 47.8083L52.7955 48.2688C52.7921 48.2814 52.7881 48.2961 52.7835 48.313C52.7801 48.3256 52.7761 48.3403 52.7715 48.3572C52.705 48.6013 52.7646 48.8056 52.9503 48.97C53.1402 49.1355 53.422 49.2621 53.7956 49.3498C53.991 49.3956 54.183 49.4205 54.3716 49.4245C54.5657 49.4253 54.7321 49.3949 54.8708 49.3335C55.0149 49.2688 55.1058 49.167 55.1436 49.0281C55.2043 48.805 55.122 48.6178 54.8967 48.4664C54.6756 48.316 54.3037 48.1302 53.7811 47.9091C53.4849 47.7858 53.1901 47.6405 52.8968 47.4732C52.6036 47.3058 52.3438 47.115 52.1175 46.9007C51.8923 46.6822 51.7311 46.4362 51.6339 46.1626C51.5378 45.8848 51.5362 45.5755 51.629 45.2346C51.7527 44.78 51.9949 44.4294 52.3557 44.1828C52.7207 43.9371 53.1564 43.7886 53.6628 43.7373C54.1692 43.686 54.7005 43.7257 55.2568 43.8562C55.7876 43.9808 56.2582 44.1853 56.6687 44.4697C57.0804 44.7499 57.3838 45.0875 57.579 45.4826C57.7753 45.8734 57.811 46.2982 57.6862 46.757C57.6839 46.7654 57.6805 46.778 57.6759 46.7948C57.6713 46.8117 57.6667 46.8285 57.6621 46.8454L55.7194 46.3894C55.724 46.3726 55.728 46.3578 55.7314 46.3452C55.7349 46.3326 55.7377 46.322 55.74 46.3136C55.7858 46.1453 55.7678 45.9955 55.6861 45.8644C55.6085 45.7343 55.4939 45.6245 55.342 45.5351C55.1913 45.4416 55.0267 45.3738 54.8484 45.332C54.687 45.2941 54.5141 45.2737 54.3297 45.2707C54.1507 45.2645 53.9903 45.2895 53.8485 45.3458C53.7078 45.3979 53.6174 45.4976 53.5774 45.6449C53.5384 45.788 53.57 45.9208 53.6722 46.0432C53.7756 46.1615 53.9339 46.277 54.1472 46.3898C54.3616 46.4983 54.6127 46.6132 54.9004 46.7345C55.1723 46.8475 55.4539 46.983 55.7453 47.141C56.042 47.2957 56.3077 47.4812 56.5425 47.6975C56.7827 47.9106 56.9545 48.1591 57.0579 48.4431C57.1667 48.7238 57.1708 49.0494 57.07 49.4198C56.9657 49.8028 56.7872 50.1101 56.5344 50.3418C56.2816 50.5735 55.9789 50.7398 55.6262 50.8406C55.2789 50.9382 54.9075 50.9831 54.512 50.9754C54.1197 50.9728 53.7282 50.9257 53.3375 50.834ZM57.6776 51.6915L59.5022 44.9869L61.4577 45.4459L59.6331 52.1504L57.6776 51.6915ZM60.774 44.1235C60.4682 44.0518 60.2225 43.909 60.0367 43.6952C59.8551 43.4825 59.8039 43.2309 59.8829 42.9405C59.9631 42.6459 60.1375 42.445 60.4061 42.3379C60.6789 42.2318 60.9682 42.2146 61.2739 42.2864C61.5839 42.3591 61.8297 42.5019 62.0112 42.7147C62.197 42.9284 62.2498 43.1826 62.1696 43.4772C62.0894 43.7718 61.9129 43.9722 61.6401 44.0783C61.3727 44.1812 61.084 44.1963 60.774 44.1235ZM65.9736 52.7923C66.3783 52.932 66.7196 53.0972 66.9975 53.2878C67.2808 53.4752 67.4786 53.703 67.5908 53.9711C67.7042 54.235 67.71 54.5543 67.608 54.9289C67.4901 55.3624 67.2455 55.6967 66.8743 55.932C66.5061 56.1725 66.0243 56.3079 65.4287 56.3382C64.8332 56.3686 64.1426 56.2916 63.357 56.1072C62.1977 55.8351 61.3449 55.4581 60.7984 54.9761C60.255 54.4993 60.0583 53.9853 60.2084 53.4339C60.2508 53.2782 60.3061 53.1412 60.3745 53.0229C60.4459 52.9098 60.5212 52.8156 60.6005 52.7401L62.3263 53.4206C62.297 53.445 62.2617 53.4837 62.2201 53.5367C62.1817 53.5948 62.1499 53.6702 62.1247 53.7628C62.064 53.9859 62.1865 54.1915 62.4922 54.3796C62.8021 54.5688 63.2246 54.7262 63.7597 54.8517C64.1376 54.9404 64.4678 54.9888 64.7502 54.9969C65.0357 55.0102 65.2623 54.9828 65.4299 54.9146C65.6018 54.8475 65.7054 54.7487 65.7409 54.6183C65.7925 54.4289 65.7329 54.2828 65.562 54.18C65.3955 54.0782 65.1946 53.9863 64.9594 53.9042L62.4693 53.0444C62.0105 52.8875 61.6565 52.6611 61.4072 52.3653C61.158 52.0695 61.0849 51.7322 61.1879 51.3534C61.2521 51.1177 61.3763 50.9185 61.5606 50.7558C61.7461 50.5889 61.941 50.4622 62.1452 50.3759C62.3505 50.2852 62.5151 50.2366 62.6389 50.2298L63.5079 50.9711C63.4238 50.9647 63.3145 50.9928 63.18 51.0553C63.0498 51.1188 62.9687 51.2094 62.9366 51.3273C62.9045 51.4451 62.9365 51.5601 63.0325 51.6722C63.1327 51.7852 63.3402 51.8944 63.6549 51.9996L65.9736 52.7923ZM68.2505 47.0402L69.9894 47.4483L68.5814 49.8581C68.3169 50.3154 68.003 50.7052 67.6398 51.0274C67.2776 51.3454 66.8502 51.563 66.3575 51.6802C65.8691 51.7984 65.2979 51.7807 64.644 51.6272C63.956 51.4658 63.388 51.2205 62.94 50.8915C62.4962 50.5635 62.1905 50.176 62.023 49.7293C61.8566 49.2783 61.845 48.7897 61.9881 48.2636C62.1313 47.7376 62.3953 47.307 62.7801 46.9719C63.1692 46.6379 63.634 46.4156 64.1745 46.3052C64.7193 46.1957 65.2975 46.2128 65.909 46.3563C66.3718 46.4649 66.7737 46.6399 67.1147 46.8811C67.461 47.1191 67.7177 47.3875 67.8849 47.6864C68.0562 47.9864 68.1061 48.2846 68.0344 48.5812L67.6455 48.5907L68.2505 47.0402ZM65.0212 50.1912C65.3015 50.257 65.5598 50.2706 65.7962 50.232C66.0337 50.1893 66.2354 50.0955 66.4012 49.9509C66.5682 49.802 66.6855 49.6034 66.7531 49.3551C66.8195 49.111 66.8168 48.8887 66.7448 48.6883C66.6729 48.4878 66.5434 48.3164 66.3562 48.1739C66.1691 48.0315 65.9354 47.9274 65.6552 47.8616C65.3876 47.7988 65.1324 47.7904 64.8895 47.8364C64.652 47.8792 64.4476 47.9745 64.2764 48.1223C64.1063 48.266 63.9874 48.462 63.9198 48.7103C63.8534 48.9544 63.8562 49.1767 63.9281 49.3772C64.0012 49.5734 64.1313 49.7428 64.3184 49.8852C64.5067 50.0234 64.7409 50.1254 65.0212 50.1912ZM73.8893 55.4964L74.6642 52.6492C74.7077 52.4892 74.7472 52.344 74.7827 52.2136C74.8182 52.0831 74.8503 51.9652 74.8789 51.86C74.9545 51.5822 74.9871 51.3212 74.9768 51.077C74.9676 50.8286 74.8885 50.613 74.7394 50.4303C74.5904 50.2475 74.3396 50.1148 73.9872 50.0321C73.6814 49.9603 73.3971 49.9675 73.1343 50.0536C72.8757 50.1406 72.6531 50.2944 72.4667 50.5148C72.2802 50.7352 72.1428 51.0074 72.0547 51.3315L71.6134 50.8115C71.7714 50.2307 72.0374 49.7513 72.4113 49.3734C72.7852 48.9955 73.2225 48.7332 73.7232 48.5866C74.2282 48.4409 74.7461 48.4304 75.2769 48.555C75.8332 48.6855 76.2593 48.9042 76.5553 49.211C76.8567 49.5145 77.0406 49.8846 77.107 50.3211C77.1789 50.7543 77.1432 51.234 77 51.7601C76.9416 51.9747 76.8763 52.2146 76.8042 52.4798C76.732 52.7449 76.6581 53.0164 76.5825 53.2942L75.8575 55.9583L73.8893 55.4964ZM69.1248 54.3781L70.9494 47.6736L72.924 48.1371L71.0994 54.8416L69.1248 54.3781ZM78.8462 53.718L79.1984 52.4238L83.6826 53.4763L83.4022 53.7597C83.4113 53.726 83.4199 53.6945 83.4279 53.665C83.4371 53.6313 83.4457 53.5998 83.4537 53.5703C83.519 53.3304 83.5241 53.0876 83.469 52.8418C83.415 52.5918 83.2859 52.369 83.0817 52.1733C82.8828 51.9744 82.5966 51.8311 82.2229 51.7434C81.8492 51.6557 81.5047 51.6599 81.1894 51.756C80.8795 51.849 80.6123 52.0258 80.3877 52.2865C80.1674 52.5483 80.0006 52.8875 79.8872 53.3041C79.7703 53.7334 79.7381 54.1176 79.7903 54.4568C79.848 54.7927 79.9904 55.0746 80.2175 55.3025C80.4488 55.5314 80.7683 55.6937 81.176 55.7894C81.4393 55.8512 81.6728 55.8814 81.8765 55.8799C82.0813 55.8743 82.2535 55.8475 82.393 55.7997C82.5367 55.7528 82.6531 55.6906 82.742 55.6129C82.8309 55.5353 82.8937 55.4538 82.9305 55.3684L84.8796 55.8258C84.7774 56.1018 84.6041 56.3567 84.3598 56.5904C84.1166 56.8199 83.8145 57.0087 83.4535 57.1568C83.0936 57.3007 82.6799 57.3849 82.2124 57.4095C81.7491 57.4351 81.2415 57.3831 80.6895 57.2536C79.9421 57.0782 79.3304 56.7779 78.8542 56.3527C78.3793 55.9233 78.0599 55.4118 77.8962 54.8182C77.7337 54.2203 77.7457 53.5784 77.9324 52.8924C78.1214 52.1979 78.4419 51.6261 78.8939 51.177C79.3513 50.7247 79.8977 50.4186 80.533 50.2587C81.1737 50.0957 81.8613 50.1003 82.596 50.2728C83.3476 50.4492 83.9566 50.7511 84.4231 51.1785C84.8907 51.6016 85.2004 52.1154 85.3522 52.7196C85.5051 53.3197 85.4854 53.9733 85.293 54.6803C85.2643 54.7855 85.2347 54.8861 85.2041 54.9819C85.1735 55.0777 85.1477 55.1477 85.1266 55.192L78.8462 53.718ZM85.6336 58.2528L87.4582 51.5483L89.4391 52.0132L88.8103 54.3238L88.4714 53.9756C88.604 53.6709 88.7679 53.4004 88.9633 53.1642C89.1586 52.9279 89.3802 52.7359 89.6282 52.5882C89.8774 52.4362 90.1506 52.3369 90.4479 52.2903C90.7495 52.2446 91.0744 52.2627 91.4226 52.3444C91.6943 52.4082 91.9009 52.479 92.0424 52.557C92.1892 52.6318 92.2788 52.6841 92.3113 52.7142L91.5088 54.393C91.4764 54.3629 91.4006 54.3093 91.2815 54.2322C91.1625 54.155 90.999 54.0919 90.7909 54.0431C90.4512 53.9634 90.1512 53.9534 89.891 54.0132C89.6307 54.0731 89.4048 54.1812 89.2131 54.3377C89.0268 54.491 88.873 54.6743 88.7517 54.8876C88.6304 55.101 88.5383 55.3234 88.4753 55.5548L87.6146 58.7177L85.6336 58.2528Z" fill="#FBBB00"/>
</svg>
