<svg width="124" height="75" viewBox="0 0 124 75" fill="none" xmlns="http://www.w3.org/2000/svg">
<rect x="0.348016" y="0.675351" width="112.233" height="44.0437" rx="22.0218" transform="matrix(0.958775 0.284167 -0.325004 0.945713 14.9057 -0.0622318)" fill="white" stroke="#DB591B" stroke-width="1.09824"/>
<path d="M40.5674 27.9393L37.5125 27.0339L38.605 26.3487L35.6642 34.906L33.7259 34.3315L36.6667 25.7742L37.1549 26.9279L34.0812 26.0169L34.5915 24.5319L41.0778 26.4543L40.5674 27.9393ZM39.9161 33.1801L40.3521 31.9116L44.7682 33.2205L44.4695 33.4865C44.4808 33.4535 44.4914 33.4225 44.5014 33.3937C44.5127 33.3607 44.5233 33.3297 44.5333 33.3009C44.6141 33.0657 44.6349 32.8242 44.5957 32.5762C44.5579 32.3241 44.4432 32.0947 44.2516 31.8879C44.0656 31.6783 43.7886 31.5189 43.4206 31.4098C43.0526 31.3007 42.7078 31.2849 42.3863 31.3623C42.0704 31.4369 41.7917 31.5975 41.5503 31.8441C41.3131 32.0919 41.1243 32.42 40.9839 32.8284C40.8393 33.2491 40.7822 33.6299 40.8125 33.9707C40.8485 34.3086 40.9726 34.5977 41.185 34.8379C41.4015 35.0793 41.7105 35.2595 42.112 35.3785C42.3713 35.4554 42.6028 35.499 42.8066 35.5094C43.0118 35.5157 43.1857 35.499 43.3283 35.4595C43.4751 35.4212 43.5955 35.3659 43.6894 35.2938C43.7833 35.2216 43.8514 35.1441 43.8937 35.0612L45.8133 35.6301C45.6932 35.8991 45.5035 36.1428 45.244 36.3613C44.986 36.5758 44.6717 36.7462 44.3011 36.8727C43.9319 36.9951 43.5127 37.0549 43.0436 37.0523C42.5787 37.0508 42.0744 36.9695 41.5308 36.8084C40.7947 36.5903 40.2024 36.2556 39.7538 35.8045C39.3066 35.3493 39.0204 34.8213 38.895 34.2205C38.7711 33.6156 38.8247 32.977 39.0558 32.3046C39.2897 31.624 39.6472 31.0732 40.1282 30.6522C40.6149 30.2283 41.1811 29.9552 41.8267 29.8329C42.478 29.7078 43.1654 29.7524 43.8888 29.9669C44.629 30.1863 45.2186 30.5223 45.6574 30.9751C46.0976 31.4238 46.3741 31.9534 46.4868 32.564C46.6009 33.1706 46.5389 33.8203 46.3008 34.5133C46.2653 34.6164 46.2292 34.7148 46.1924 34.8085C46.1556 34.9021 46.1253 34.9704 46.1013 35.0133L39.9161 33.1801ZM49.7153 39.2342C48.9835 39.0173 48.3912 38.6827 47.9384 38.2303C47.487 37.7738 47.198 37.2404 47.0713 36.6302C46.9488 36.0212 47.0045 35.3764 47.2384 34.6958C47.4752 34.0069 47.8306 33.4555 48.3046 33.0415C48.7843 32.6246 49.3483 32.3577 49.9967 32.2408C50.6452 32.1239 51.3353 32.1739 52.0671 32.3908C52.615 32.5532 53.0724 32.7774 53.4395 33.0635C53.808 33.3454 54.0898 33.6584 54.2849 34.0026C54.48 34.3468 54.5975 34.6952 54.6376 35.048C54.6776 35.4007 54.6452 35.7297 54.5403 36.035C54.5389 36.0391 54.536 36.0474 54.5318 36.0597C54.529 36.068 54.5261 36.0762 54.5233 36.0845L52.5975 35.5137C52.606 35.489 52.6117 35.4657 52.6146 35.4438C52.6231 35.419 52.6274 35.3931 52.6276 35.3658C52.6536 35.1827 52.6365 34.998 52.576 34.8119C52.5155 34.6258 52.3991 34.455 52.2268 34.2994C52.0601 34.1409 51.8262 34.017 51.5251 33.9278C51.2031 33.8323 50.8904 33.8169 50.5871 33.8816C50.288 33.9475 50.0178 34.0969 49.7764 34.3299C49.5365 34.5588 49.3471 34.8753 49.2082 35.2796C49.0721 35.6756 49.0276 36.0396 49.0747 36.3718C49.1233 36.6998 49.2468 36.9773 49.4453 37.2043C49.6479 37.4325 49.9102 37.5944 50.2323 37.6898C50.5626 37.7877 50.8494 37.8182 51.0925 37.7811C51.337 37.74 51.5407 37.6503 51.7033 37.5122C51.8674 37.3699 51.9954 37.1988 52.0871 36.9987L54.0129 37.5695C53.908 37.8748 53.7278 38.1645 53.4723 38.4387C53.2224 38.7101 52.9106 38.9336 52.5369 39.1092C52.1674 39.286 51.7438 39.3923 51.2661 39.4279C50.7885 39.4636 50.2715 39.3991 49.7153 39.2342ZM59.054 41.8384L59.8578 39.4995C59.8861 39.417 59.9251 39.3036 59.9747 39.1592C60.0243 39.0149 60.0747 38.8684 60.1257 38.7199C60.1767 38.5714 60.2178 38.4518 60.249 38.361C60.422 37.8578 60.4632 37.4428 60.3728 37.116C60.2838 36.7851 59.9946 36.5471 59.5053 36.4021C59.1875 36.3079 58.8979 36.2925 58.6364 36.3559C58.3765 36.4152 58.151 36.5416 57.9601 36.735C57.7734 36.9296 57.6276 37.1796 57.5227 37.4848L57.09 36.9339C57.2785 36.3852 57.5629 35.94 57.943 35.5982C58.3246 35.2522 58.7648 35.0236 59.2638 34.9124C59.767 34.8025 60.2946 34.8293 60.8467 34.9929C61.6621 35.2346 62.1933 35.6534 62.4401 36.2492C62.6883 36.841 62.6678 37.5576 62.3787 38.3991C62.3049 38.6136 62.2163 38.8714 62.1129 39.1725C62.0094 39.4736 61.8896 39.8222 61.7535 40.2182L60.9986 42.4148L59.054 41.8384ZM54.3618 40.4477L57.6854 30.7766L59.63 31.353L56.3064 41.0241L54.3618 40.4477ZM62.3728 42.8221L64.631 36.2509L66.5568 36.8217L64.2986 43.3928L62.3728 42.8221ZM65.9587 35.4649C65.6576 35.3757 65.421 35.2192 65.2491 34.9956C65.0813 34.7731 65.0463 34.5196 65.1441 34.235C65.2434 33.9462 65.4307 33.7563 65.7063 33.6652C65.9859 33.5754 66.2763 33.5751 66.5775 33.6644C66.8827 33.7549 67.1193 33.9113 67.287 34.1338C67.459 34.3574 67.4954 34.6137 67.3961 34.9024C67.2969 35.1912 67.1074 35.3804 66.8277 35.4703C66.5536 35.5572 66.264 35.5554 65.9587 35.4649ZM69.0366 44.9607C68.3047 44.7438 67.7124 44.4092 67.2596 43.9568C66.8083 43.5004 66.5192 42.967 66.3926 42.3568C66.2701 41.7478 66.3258 41.103 66.5597 40.4223C66.7964 39.7335 67.1518 39.182 67.6259 38.768C68.1055 38.3511 68.6696 38.0842 69.318 37.9673C69.9664 37.8504 70.6565 37.9004 71.3884 38.1174C71.9362 38.2797 72.3937 38.5039 72.7608 38.79C73.1293 39.0719 73.4111 39.385 73.6062 39.7292C73.8012 40.0733 73.9188 40.4218 73.9588 40.7745C73.9989 41.1273 73.9665 41.4563 73.8616 41.7615C73.8601 41.7657 73.8573 41.7739 73.8531 41.7863C73.8502 41.7945 73.8474 41.8028 73.8445 41.811L71.9187 41.2403C71.9272 41.2155 71.933 41.1922 71.9359 41.1703C71.9444 41.1456 71.9487 41.1196 71.9488 41.0924C71.9749 40.9092 71.9577 40.7246 71.8973 40.5385C71.8368 40.3524 71.7204 40.1815 71.5481 40.0259C71.3814 39.8674 71.1475 39.7436 70.8464 39.6543C70.5244 39.5589 70.2117 39.5435 69.9084 39.6081C69.6093 39.674 69.3391 39.8234 69.0977 40.0564C68.8578 40.2853 68.6683 40.6019 68.5294 41.0061C68.3933 41.4021 68.3489 41.7662 68.396 42.0983C68.4446 42.4263 68.5681 42.7038 68.7665 42.9308C68.9692 43.1591 69.2315 43.3209 69.5535 43.4163C69.8839 43.5143 70.1706 43.5447 70.4138 43.5077C70.6583 43.4665 70.8619 43.3769 71.0246 43.2387C71.1887 43.0965 71.3166 42.9253 71.4084 42.7253L73.3342 43.296C73.2293 43.6013 73.0491 43.891 72.7936 44.1653C72.5436 44.4366 72.2318 44.6601 71.8582 44.8357C71.4887 45.0125 71.0651 45.1188 70.5874 45.1545C70.1097 45.1902 69.5928 45.1256 69.0366 44.9607ZM73.6078 46.152L75.866 39.5808L77.7918 40.1516L75.5336 46.7227L73.6078 46.152ZM77.1937 38.7948C76.8926 38.7056 76.656 38.5491 76.4841 38.3254C76.3163 38.103 76.2813 37.8495 76.3791 37.5648C76.4784 37.2761 76.6657 37.0862 76.9413 36.9951C77.221 36.9053 77.5113 36.905 77.8125 36.9943C78.1177 37.0848 78.3543 37.2412 78.522 37.4637C78.694 37.6873 78.7304 37.9436 78.6311 38.2323C78.5319 38.5211 78.3424 38.7103 78.0627 38.8002C77.7886 38.8871 77.499 38.8853 77.1937 38.7948ZM79.1781 47.9529C78.693 47.8091 78.2864 47.6045 77.9582 47.3391C77.6343 47.0749 77.4153 46.7669 77.3013 46.4149C77.1872 46.0629 77.2011 45.6807 77.3429 45.2682C77.503 44.8021 77.7631 44.461 78.123 44.245C78.483 44.0289 78.9024 43.9078 79.3815 43.8816C79.8661 43.8525 80.3678 43.8876 80.8866 43.9869C81.6426 44.1336 82.1685 44.2191 82.4644 44.2431C82.7644 44.2684 82.9392 44.2089 82.9888 44.0645C82.9903 44.0604 82.9917 44.0562 82.9931 44.0521C83.0767 43.8087 83.0235 43.5816 82.8333 43.3707C82.6473 43.161 82.3431 42.9936 81.9207 42.8684C81.4733 42.7358 81.1027 42.7146 80.809 42.8048C80.521 42.8922 80.3209 43.0988 80.209 43.4247L78.2957 42.8576C78.4771 42.3296 78.7745 41.9268 79.1878 41.6494C79.6053 41.3731 80.0948 41.216 80.6562 41.1778C81.2191 41.1356 81.8142 41.2074 82.4415 41.3933C83.027 41.5669 83.538 41.8161 83.9747 42.1409C84.4129 42.4617 84.7222 42.842 84.9028 43.2819C85.0876 43.723 85.0872 44.2137 84.9015 44.7541C84.8717 44.8407 84.8419 44.9273 84.8121 45.014C84.7838 45.0965 84.7547 45.181 84.725 45.2676L83.9254 47.5942C83.8673 47.7633 83.8155 47.9275 83.77 48.0867C83.7301 48.243 83.707 48.3907 83.7007 48.5297C83.6929 48.6865 83.704 48.8216 83.7342 48.9351C83.7643 49.0486 83.7939 49.1301 83.823 49.1796L81.9097 48.6125C81.8903 48.575 81.8649 48.5015 81.8334 48.3922C81.806 48.2841 81.792 48.164 81.7912 48.032C81.7907 47.8727 81.8027 47.7172 81.8272 47.5654C81.8573 47.4107 81.9064 47.2344 81.9744 47.0364L82.2823 47.4276C82.0717 47.6651 81.8006 47.8439 81.4691 47.9638C81.1432 48.0808 80.782 48.1397 80.3855 48.1403C79.9946 48.1381 79.5921 48.0756 79.1781 47.9529ZM80.1921 46.6717C80.4973 46.7622 80.8001 46.7929 81.1005 46.7637C81.4064 46.7316 81.6834 46.6228 81.9315 46.4373C82.1796 46.2518 82.3688 45.9692 82.4992 45.5897L82.7268 44.9277L83.0503 45.5349C82.7403 45.5521 82.392 45.5398 82.0055 45.4979C81.6246 45.4532 81.2479 45.3961 80.8755 45.3266C80.4348 45.2415 80.09 45.2188 79.8413 45.2587C79.5982 45.2958 79.4355 45.4339 79.3533 45.6732C79.2753 45.9 79.3064 46.0979 79.4465 46.2667C79.5881 46.4313 79.8366 46.5664 80.1921 46.6717ZM89.5368 50.8731L90.4958 48.0825C90.5496 47.9258 90.5985 47.7834 90.6425 47.6556C90.6864 47.5277 90.7261 47.4122 90.7616 47.3091C90.8551 47.0368 90.9046 46.7788 90.9101 46.535C90.917 46.287 90.8518 46.0677 90.7146 45.877C90.5773 45.6864 90.3352 45.5396 89.9881 45.4367C89.687 45.3475 89.4022 45.3381 89.1338 45.4085C88.8695 45.4802 88.637 45.6204 88.4363 45.829C88.2356 46.0377 88.0806 46.3009 87.9715 46.6185L87.5638 46.075C87.7595 45.5057 88.0564 45.0438 88.4548 44.6891C88.8531 44.3345 89.3074 44.0987 89.8176 43.9818C90.332 43.8661 90.8506 43.8857 91.3733 44.0406C91.9212 44.203 92.3332 44.4455 92.6093 44.7683C92.8911 45.0881 93.051 45.4673 93.0892 45.9059C93.1331 46.3416 93.0664 46.8172 92.8892 47.3329C92.8169 47.5433 92.7361 47.7784 92.6467 48.0383C92.5574 48.2981 92.466 48.5642 92.3724 48.8364L91.4751 51.4476L89.5368 50.8731ZM84.8446 49.4824L87.1028 42.9112L89.0474 43.4876L86.7892 50.0587L84.8446 49.4824Z" fill="#E97124"/>
</svg>
