<svg width="142" height="141" viewBox="0 0 142 141" fill="none" xmlns="http://www.w3.org/2000/svg">
<rect x="0.758732" y="0.251256" width="111.372" height="44.4273" rx="22.2137" transform="matrix(0.906464 -0.422284 0.47526 0.879845 8.90663 74.5127)" fill="white" stroke="#7C30F7" stroke-width="1.09824"/>
<path d="M49.7983 83.8155L47.9539 84.6747L43.3674 76.1838L46.3624 74.7885C47.0306 74.4772 47.6703 74.3377 48.2816 74.37C48.8947 74.3966 49.442 74.5667 49.9232 74.8805C50.4064 75.1886 50.793 75.6113 51.0833 76.1486C51.3714 76.682 51.5072 77.2312 51.4907 77.7961C51.476 78.3553 51.304 78.8798 50.9747 79.3694C50.6433 79.8553 50.1454 80.2529 49.4812 80.5624L48.3306 81.0984L49.7983 83.8155ZM48.0321 80.5457L46.7541 80.1036L48.5392 79.272C48.8476 79.1283 49.0843 78.9436 49.2494 78.7178C49.4124 78.4881 49.4949 78.2287 49.4971 77.9395C49.4972 77.6464 49.4091 77.3368 49.2329 77.0106C49.0546 76.6806 48.8442 76.4376 48.6015 76.2816C48.3608 76.1199 48.0978 76.0407 47.8125 76.0439C47.5291 76.0415 47.2292 76.1139 46.9129 76.2613L45.1278 77.0929L45.4979 75.8541L48.0321 80.5457ZM52.3239 71.3773L57.184 80.3748L55.3692 81.2202L50.5091 72.2227L52.3239 71.3773ZM60.9491 78.7649C60.5023 78.973 60.0973 79.0752 59.734 79.0715C59.3687 79.064 59.0388 78.9799 58.7442 78.8194C58.4496 78.6588 58.1899 78.4483 57.9652 78.188C57.7404 77.9276 57.5472 77.6478 57.3855 77.3484C57.3108 77.2103 57.2321 77.0644 57.1491 76.9109C57.0662 76.7574 56.9812 76.6001 56.8942 76.4389L55.3488 73.5779L57.1873 72.7214L58.5803 75.3003C58.6508 75.4308 58.7192 75.5574 58.7856 75.6803C58.8519 75.8031 58.913 75.9163 58.969 76.0199C59.1079 76.277 59.2651 76.4992 59.4404 76.6865C59.6158 76.8738 59.8179 76.9958 60.0465 77.0526C60.2791 77.1076 60.5436 77.066 60.8402 76.9279C61.1288 76.7934 61.3314 76.6005 61.4481 76.3493C61.5627 76.0941 61.606 75.817 61.578 75.5178C61.55 75.2186 61.4645 74.9366 61.3214 74.6718L62.0582 74.8402C62.2655 75.2239 62.397 75.6094 62.4527 75.9965C62.5124 76.3818 62.4989 76.7508 62.4122 77.1034C62.3234 77.4521 62.1563 77.7702 61.9106 78.0576C61.6689 78.3431 61.3484 78.5788 60.9491 78.7649ZM62.9508 77.6883L59.6485 71.5748L61.4871 70.7183L64.7893 76.8318L62.9508 77.6883ZM70.1008 74.3574L68.8228 71.9914C68.7005 71.765 68.5947 71.5693 68.5056 71.4043C68.4144 71.2354 68.3387 71.0953 68.2786 70.9841C68.1936 70.8267 68.0998 70.6759 67.9971 70.5316C67.8983 70.3854 67.7821 70.2619 67.6484 70.1609C67.5165 70.0542 67.3666 69.9919 67.1986 69.9741C67.0285 69.9524 66.8348 69.9923 66.6173 70.0936C66.4157 70.1875 66.2645 70.3108 66.1638 70.4634C66.0611 70.6121 66.0016 70.7815 65.9855 70.9715C65.9713 71.1559 65.9932 71.3522 66.0513 71.5605C66.1073 71.765 66.1902 71.9689 66.3001 72.1723L65.5783 72.0042C65.2985 71.4861 65.1476 70.9824 65.1258 70.493C65.1018 69.9998 65.2066 69.5571 65.4402 69.1649C65.6756 68.767 66.0384 68.4539 66.5287 68.2255C67.0546 67.9805 67.5229 67.8993 67.9336 67.9817C68.3462 68.0585 68.7093 68.2496 69.0228 68.5551C69.3381 68.8549 69.6129 69.2216 69.8472 69.6553C69.9363 69.8203 70.0565 70.0429 70.2079 70.3231C70.3592 70.6032 70.5406 70.939 70.752 71.3305L71.9274 73.5064L70.1008 74.3574ZM66.1687 76.1892L62.8664 70.0757L64.7049 69.2192L68.0072 75.3327L66.1687 76.1892ZM74.015 72.5339L72.7401 70.1737C72.6137 69.9396 72.5049 69.7381 72.4136 69.5693C72.3224 69.4004 72.2468 69.2603 72.1867 69.149C72.0954 68.9802 71.9985 68.8236 71.8958 68.6793C71.791 68.5312 71.6728 68.4085 71.5412 68.3113C71.4095 68.2142 71.2607 68.1586 71.0948 68.1446C70.9289 68.1306 70.7372 68.1743 70.5197 68.2756C70.3181 68.3695 70.1669 68.4928 70.0662 68.6454C69.9674 68.7923 69.9109 68.9579 69.8967 69.1423C69.8824 69.3266 69.9023 69.5191 69.9562 69.7198C70.0141 69.9186 70.0959 70.1158 70.2017 70.3115L69.483 70.1492C69.2073 69.6388 69.0576 69.1417 69.0338 68.658C69.014 68.1725 69.1189 67.7345 69.3485 67.3442C69.58 66.9481 69.9428 66.635 70.4371 66.4048C70.9511 66.1653 71.4133 66.0821 71.8239 66.155C72.2384 66.2261 72.6043 66.4087 72.9215 66.7028C73.2406 66.9913 73.5173 67.3523 73.7515 67.786C73.8448 67.9587 73.9651 68.1813 74.1122 68.4537C74.2594 68.7262 74.4387 69.0582 74.6502 69.4496L75.8536 71.6774L74.015 72.5339ZM81.0921 69.4027C80.5939 69.6348 80.0678 69.719 79.5138 69.6552C78.9598 69.5915 78.44 69.3989 77.9546 69.0775C77.4671 68.7522 77.0752 68.3151 76.7787 67.7663C76.7704 67.751 76.7632 67.7375 76.757 67.726C76.7487 67.7107 76.7393 67.6934 76.729 67.6742L77.5144 67.2867C77.5206 67.2982 77.5268 67.3097 77.533 67.3213C77.5392 67.3328 77.5455 67.3443 77.5517 67.3558C77.7051 67.6398 77.911 67.8561 78.1694 68.0047C78.4258 68.1495 78.6977 68.2269 78.9853 68.2371C79.2728 68.2472 79.5392 68.1952 79.7843 68.081C80.1876 67.8931 80.465 67.5958 80.6164 67.189C80.7697 66.7765 80.6909 66.2825 80.3799 65.7068C80.069 65.1311 79.6948 64.7819 79.2573 64.6591C78.8177 64.5324 78.3943 64.564 77.987 64.7537C77.7419 64.8679 77.5377 65.035 77.3746 65.2552C77.2093 65.4714 77.1115 65.7163 77.0811 65.9899C77.0507 66.2634 77.1132 66.5441 77.2687 66.832L76.4491 67.1561C76.1506 66.6035 76.0119 66.0581 76.033 65.5199C76.0519 64.9779 76.2037 64.4893 76.4883 64.0541C76.7707 63.6151 77.1611 63.2795 77.6593 63.0474C78.1693 62.8098 78.711 62.7088 79.2845 62.7443C79.8579 62.7797 80.4075 62.968 80.9332 63.3091C81.4628 63.6484 81.9091 64.1538 82.2718 64.8254C82.6512 65.5277 82.836 66.1814 82.8263 66.7863C82.8145 67.3875 82.6535 67.914 82.3433 68.3659C82.0311 68.814 81.614 69.1596 81.0921 69.4027ZM77.2309 71.0358L72.3707 62.0383L74.2152 61.179L79.0753 70.1765L77.2309 71.0358ZM84.4283 64.527L83.7908 63.3469L87.966 61.4018L87.9498 61.784C87.9332 61.7533 87.9177 61.7245 87.9032 61.6977C87.8866 61.667 87.871 61.6382 87.8565 61.6113C87.7384 61.3926 87.572 61.2083 87.3575 61.0585C87.1408 60.9048 86.8856 60.8171 86.5919 60.7955C86.3 60.7681 85.9801 60.8355 85.6321 60.9976C85.2842 61.1597 85.0231 61.3726 84.8488 61.6363C84.6764 61.8944 84.5956 62.189 84.6062 62.5203C84.6209 62.8497 84.7308 63.2044 84.936 63.5843C85.1475 63.9758 85.3921 64.2821 85.67 64.5033C85.9497 64.7188 86.2565 64.8425 86.5904 64.8743C86.9283 64.9042 87.287 64.8308 87.6665 64.654C87.9117 64.5398 88.1118 64.4201 88.2669 64.295C88.42 64.1661 88.5332 64.0413 88.6066 63.9206C88.6839 63.7981 88.7294 63.6808 88.7431 63.5688C88.7568 63.4567 88.7479 63.3576 88.7162 63.2715L90.531 62.4261C90.6462 62.6943 90.692 62.9899 90.6686 63.313C90.6431 63.6323 90.5439 63.9571 90.371 64.2875C90.196 64.614 89.938 64.9287 89.5969 65.2317C89.2597 65.5329 88.8342 65.8032 88.3202 66.0427C87.6243 66.3668 86.9448 66.5153 86.2818 66.4879C85.6166 66.4567 85.0132 66.2695 84.4715 65.9262C83.9277 65.5791 83.4868 65.0928 83.1489 64.4673C82.8069 63.8341 82.6517 63.2123 82.6832 62.6019C82.7167 61.9859 82.9209 61.4249 83.2958 60.9188C83.6726 60.407 84.203 59.9918 84.887 59.6731C85.5868 59.3471 86.2653 59.2015 86.9226 59.2364C87.5777 59.2675 88.1753 59.4622 88.7154 59.8206C89.2533 60.1753 89.6964 60.6749 90.0447 61.3197C90.0965 61.4156 90.1443 61.5086 90.188 61.5988C90.2317 61.6889 90.2611 61.7569 90.2759 61.8028L84.4283 64.527ZM92.8106 63.7778L89.5083 57.6644L91.3528 56.8051L92.4909 58.912L91.9869 58.8586C91.8749 58.5505 91.811 58.2488 91.795 57.9536C91.7791 57.6585 91.8144 57.3802 91.9009 57.119C91.9853 56.8539 92.1252 56.6134 92.3204 56.3976C92.5195 56.1799 92.7812 55.9956 93.1054 55.8445C93.3584 55.7266 93.5665 55.6537 93.7296 55.6258C93.8945 55.5922 94 55.5767 94.0459 55.5793L94.6079 57.3205C94.5619 57.3179 94.4663 57.3241 94.3209 57.3389C94.1755 57.3538 94.006 57.4064 93.8122 57.4967C93.4959 57.644 93.259 57.8192 93.1015 58.0223C92.9439 58.2254 92.8466 58.4437 92.8094 58.6772C92.7741 58.905 92.7847 59.1354 92.8413 59.3684C92.8979 59.6014 92.9832 59.8235 93.0972 60.0345L94.6551 62.9186L92.8106 63.7778Z" fill="#8E59FF"/>
</svg>
