<svg width="40" height="41" viewBox="0 0 40 41" fill="none" xmlns="http://www.w3.org/2000/svg">
<path fill-rule="evenodd" clip-rule="evenodd" d="M11.9515 7.19504C17.108 6.62412 22.3117 6.62412 27.4682 7.19504C30.3232 7.51504 32.6265 9.76337 32.9615 12.6284C33.5726 17.8584 33.5726 23.1417 32.9615 28.3717C32.6265 31.2367 30.3232 33.485 27.4682 33.805C22.3117 34.3759 17.108 34.3759 11.9515 33.805C9.09652 33.485 6.79318 31.2367 6.45818 28.3717C5.84727 23.1423 5.84727 17.8595 6.45818 12.63C6.62763 11.2382 7.26215 9.94428 8.2589 8.95811C9.25566 7.97194 10.5562 7.35128 11.9499 7.1967M19.7099 12.1784C20.0414 12.1784 20.3593 12.3101 20.5937 12.5445C20.8282 12.7789 20.9599 13.0968 20.9599 13.4284V19.25H26.7815C27.113 19.25 27.431 19.3817 27.6654 19.6161C27.8998 19.8506 28.0315 20.1685 28.0315 20.5C28.0315 20.8316 27.8998 21.1495 27.6654 21.3839C27.431 21.6183 27.113 21.75 26.7815 21.75H20.9599V27.5717C20.9599 27.9032 20.8282 28.2212 20.5937 28.4556C20.3593 28.69 20.0414 28.8217 19.7099 28.8217C19.3783 28.8217 19.0604 28.69 18.826 28.4556C18.5916 28.2212 18.4599 27.9032 18.4599 27.5717V21.75H12.6382C12.3067 21.75 11.9887 21.6183 11.7543 21.3839C11.5199 21.1495 11.3882 20.8316 11.3882 20.5C11.3882 20.1685 11.5199 19.8506 11.7543 19.6161C11.9887 19.3817 12.3067 19.25 12.6382 19.25H18.4599V13.4284C18.4599 13.0968 18.5916 12.7789 18.826 12.5445C19.0604 12.3101 19.3783 12.1784 19.7099 12.1784Z" fill="black"/>
</svg>
