<svg width="24" height="24" viewBox="0 0 24 24" fill="none" xmlns="http://www.w3.org/2000/svg">
<path d="M10.4999 0C11.3296 0 11.9999 0.670312 11.9999 1.5V11.25H8.9999V1.5C8.9999 0.670312 9.67021 0 10.4999 0ZM14.9999 7.5C15.8296 7.5 16.4999 8.17031 16.4999 9V12C16.4999 12.8297 15.8296 13.5 14.9999 13.5C14.1702 13.5 13.4999 12.8297 13.4999 12V9C13.4999 8.17031 14.1702 7.5 14.9999 7.5ZM17.9999 10.5C17.9999 9.67031 18.6702 9 19.4999 9C20.3296 9 20.9999 9.67031 20.9999 10.5V13.5C20.9999 14.3297 20.3296 15 19.4999 15C18.6702 15 17.9999 14.3297 17.9999 13.5V10.5ZM4.37333 2.4L8.24521 11.25H4.96864L1.62646 3.6C1.29364 2.84063 1.64052 1.95938 2.39989 1.62656C3.15927 1.29375 4.04521 1.64062 4.37333 2.4ZM5.63896 12.7734L5.62958 12.75H10.1296C11.1655 12.75 12.0046 13.5891 12.0046 14.625C12.0046 15.6609 11.1655 16.5 10.1296 16.5H7.50458C7.09208 16.5 6.75458 16.8375 6.75458 17.25C6.75458 17.6625 7.09208 18 7.50458 18H10.1296C11.9952 18 13.5046 16.4906 13.5046 14.625V14.5969C13.9452 14.85 14.4561 15 15.0046 15C15.6233 15 16.1952 14.8125 16.6733 14.4938C17.0811 15.6609 18.1968 16.5 19.5046 16.5C20.053 16.5 20.564 16.3547 21.0046 16.0969V16.5C21.0046 20.6437 17.6483 24 13.5046 24H10.6124C8.62489 24 6.71708 23.2078 5.31083 21.8016L4.76708 21.2578C3.63271 20.1328 2.99989 18.6047 2.99989 17.0156V15.75C2.99989 14.2172 4.15302 12.9516 5.63896 12.7734Z" fill="#054F43"/>
</svg>
