<svg width="28" height="28" viewBox="0 0 28 28" fill="none" xmlns="http://www.w3.org/2000/svg">
<path d="M13.9993 14.584C12.9164 14.584 11.8778 15.0142 11.112 15.78C10.3462 16.5457 9.91602 17.5844 9.91602 18.6673C9.91602 19.7503 10.3462 20.7889 11.112 21.5547C11.8778 22.3204 12.9164 22.7507 13.9993 22.7507C15.0823 22.7507 16.1209 22.3204 16.8867 21.5547C17.6525 20.7889 18.0827 19.7503 18.0827 18.6673C18.0827 17.5844 17.6525 16.5457 16.8867 15.78C16.1209 15.0142 15.0823 14.584 13.9993 14.584ZM12.2493 18.6673C12.2493 18.2032 12.4337 17.7581 12.7619 17.4299C13.0901 17.1017 13.5352 16.9173 13.9993 16.9173C14.4635 16.9173 14.9086 17.1017 15.2368 17.4299C15.565 17.7581 15.7493 18.2032 15.7493 18.6673C15.7493 19.1314 15.565 19.5766 15.2368 19.9048C14.9086 20.2329 14.4635 20.4173 13.9993 20.4173C13.5352 20.4173 13.0901 20.2329 12.7619 19.9048C12.4337 19.5766 12.2493 19.1314 12.2493 18.6673Z" fill="#054F43"/>
<path d="M20.447 5.96936L16.7382 0.769531L3.101 11.6639L2.345 11.6557V11.6674H1.75V25.6674H26.25V11.6674H25.1277L22.8947 5.1352L20.447 5.96936ZM22.6625 11.6674H10.9632L19.677 8.69703L21.4527 8.12886L22.6625 11.6674ZM18.1417 6.7557L9.14667 9.8217L16.2703 4.1307L18.1417 6.7557ZM4.08333 21.1979V16.1345C4.57587 15.9607 5.02326 15.6788 5.39269 15.3096C5.76212 14.9404 6.04423 14.4931 6.21833 14.0007H21.7817C21.9556 14.4934 22.2377 14.9408 22.6071 15.3103C22.9765 15.6797 23.424 15.9617 23.9167 16.1357V21.199C23.424 21.373 22.9765 21.655 22.6071 22.0245C22.2377 22.3939 21.9556 22.8414 21.7817 23.334H6.22067C6.04588 22.8413 5.76329 22.3939 5.39352 22.0243C5.02375 21.6547 4.57613 21.3724 4.08333 21.1979Z" fill="#054F43"/>
</svg>
