<svg width="28" height="28" viewBox="0 0 28 28" fill="none" xmlns="http://www.w3.org/2000/svg">
<path d="M14.0007 2.33398C20.4442 2.33398 25.6673 7.55715 25.6673 14.0007C25.6673 20.4442 20.4442 25.6673 14.0007 25.6673C7.55715 25.6673 2.33398 20.4442 2.33398 14.0007C2.33398 7.55715 7.55715 2.33398 14.0007 2.33398ZM14.0007 7.00065C13.6912 7.00065 13.3945 7.12357 13.1757 7.34236C12.9569 7.56115 12.834 7.8579 12.834 8.16732V14.0007C12.8341 14.31 12.957 14.6067 13.1758 14.8255L16.6758 18.3255C16.8959 18.538 17.1906 18.6556 17.4965 18.6529C17.8023 18.6503 18.095 18.5276 18.3113 18.3113C18.5276 18.095 18.6503 17.8023 18.6529 17.4965C18.6556 17.1906 18.538 16.8959 18.3255 16.6758L15.1673 13.5177V8.16732C15.1673 7.8579 15.0444 7.56115 14.8256 7.34236C14.6068 7.12357 14.3101 7.00065 14.0007 7.00065Z" fill="#054F43"/>
</svg>
