<svg width="28" height="28" viewBox="0 0 28 28" fill="none" xmlns="http://www.w3.org/2000/svg">
<path d="M7.00065 8.75065C7.00065 7.04885 7.67669 5.41674 8.88005 4.21338C10.0834 3.01002 11.7155 2.33398 13.4173 2.33398C15.1191 2.33398 16.7512 3.01002 17.9546 4.21338C19.1579 5.41674 19.834 7.04885 19.834 8.75065C19.834 10.4525 19.1579 12.0846 17.9546 13.2879C16.7512 14.4913 15.1191 15.1673 13.4173 15.1673C11.7155 15.1673 10.0834 14.4913 8.88005 13.2879C7.67669 12.0846 7.00065 10.4525 7.00065 8.75065ZM16.9173 15.7507H27.4173V22.3237C27.4171 22.9053 27.2719 23.4778 26.9949 23.9893C26.7179 24.5008 26.3177 24.9352 25.8307 25.2532L22.1673 27.6472L18.504 25.2532C18.0169 24.9352 17.6168 24.5008 17.3397 23.9893C17.0627 23.4778 16.9175 22.9053 16.9173 22.3237V15.7507ZM14.584 25.6673H2.33398V23.334C2.33398 21.4775 3.07148 19.697 4.38424 18.3842C5.69699 17.0715 7.47747 16.334 9.33398 16.334H14.584V25.6673Z" fill="#054F43"/>
</svg>
