<svg width="1355" height="633" viewBox="0 0 1355 633" fill="none" xmlns="http://www.w3.org/2000/svg">
<g clip-path="url(#clip0_853_4558)">
<rect width="1355" height="633" rx="35" fill="#054F43"/>
<g opacity="0.25">
<path d="M1126.32 72.4812C1132.8 70.6944 1139.89 69.0869 1147.6 67.6589C1185.13 60.6622 1236.72 57.7559 1298.07 57.5119C1235.3 57.4975 1185.68 53.3569 1174.34 42.0546C1172.73 40.4543 1171.89 38.7105 1171.89 36.816C1171.89 34.9215 1172.68 33.0127 1174.2 31.3478C1184.83 19.8445 1231.68 15.3164 1311.07 15.3164C1400.48 15.3164 1444.01 21.4663 1444.01 35.5817C1444.01 51.527 1395.93 57.0813 1305.23 57.4903" stroke="#3E6946" stroke-width="3.00759" stroke-miterlimit="10"/>
<path d="M1171.88 110.722C1171.88 95.3145 1219.14 89.344 1308.37 89.2292C1230.64 89.179 1166.6 84.1055 1126.32 72.4802C1096.86 63.9621 1080.12 51.935 1080.12 35.796C1080.12 -3.92375 1170.33 -16.4102 1306.38 -16.4102C1442.43 -16.4102 1535.77 -1.46234 1535.77 36.815C1535.77 53.8941 1519.25 65.9571 1489.71 74.1594C1450.74 84.9881 1389.06 89.1144 1312.7 89.222C1401.03 89.2938 1444.03 95.4509 1444.03 109.487C1444.03 125.461 1395.8 131.001 1304.85 131.396C1229.93 131.719 1171.88 126.48 1171.88 110.714L1171.88 110.722Z" stroke="#3E6946" stroke-width="3.00759" stroke-miterlimit="10"/>
<path d="M1309.51 163.135C1174.23 163.135 1080.12 147.986 1080.12 109.702C1080.12 92.6799 1096.69 80.6671 1126.32 72.4863C1166.6 84.1116 1230.61 89.1851 1308.37 89.2353C1219.14 89.3502 1171.88 95.3207 1171.88 110.728C1171.88 126.135 1229.91 131.732 1304.85 131.409C1395.8 131.015 1444.03 125.475 1444.03 109.501C1444.03 95.4642 1401.03 89.3071 1312.7 89.2353C1389.09 89.1277 1450.74 85.0014 1489.71 74.1727C1519.09 82.6477 1535.77 94.6174 1535.77 110.735C1535.77 150.663 1445.59 163.149 1309.51 163.149L1309.51 163.135Z" stroke="#3E6946" stroke-width="3.00759" stroke-miterlimit="10"/>
<path d="M1126.32 251.968C1132.8 250.181 1139.89 248.58 1147.6 247.152C1185.13 240.156 1236.72 237.242 1298.07 236.998C1235.3 236.984 1185.68 232.843 1174.34 221.541C1172.73 219.941 1171.89 218.197 1171.89 216.302C1171.89 214.408 1172.68 212.499 1174.2 210.834C1184.83 199.331 1231.68 194.803 1311.07 194.803C1400.48 194.803 1444.01 200.953 1444.01 215.068C1444.01 231.021 1395.93 236.568 1305.23 236.977" stroke="#3E6946" stroke-width="3.00759" stroke-miterlimit="10"/>
<path d="M1171.88 290.21C1171.88 274.803 1219.14 268.832 1308.37 268.717C1230.64 268.667 1166.6 263.594 1126.32 251.968C1096.86 243.45 1080.12 231.423 1080.12 215.284C1080.12 175.565 1170.3 163.078 1306.38 163.078C1442.45 163.078 1535.77 178.019 1535.77 216.303C1535.77 233.382 1519.25 245.445 1489.71 253.648C1450.74 264.476 1389.06 268.603 1312.7 268.71C1401.03 268.782 1444.03 274.939 1444.03 288.976C1444.03 304.95 1395.8 310.49 1304.85 310.884C1229.93 311.207 1171.88 305.969 1171.88 290.203L1171.88 290.21Z" stroke="#3E6946" stroke-width="3.00759" stroke-miterlimit="10"/>
<path d="M1309.51 342.623C1174.23 342.623 1080.12 327.474 1080.12 289.19C1080.12 272.168 1096.69 260.155 1126.32 251.975C1166.6 263.6 1230.61 268.673 1308.37 268.724C1219.14 268.838 1171.88 274.809 1171.88 290.216C1171.88 305.623 1229.91 311.22 1304.85 310.898C1395.8 310.503 1444.03 304.963 1444.03 288.989C1444.03 274.952 1401.03 268.795 1312.7 268.724C1389.09 268.616 1450.74 264.49 1489.71 253.661C1519.09 262.136 1535.77 274.106 1535.77 290.223C1535.77 330.151 1445.59 342.637 1309.51 342.637L1309.51 342.623Z" stroke="#3E6946" stroke-width="3.00759" stroke-miterlimit="10"/>
<path d="M765.459 72.4799C773.09 70.3701 781.593 68.5187 790.886 66.9041C828.032 60.4527 878.041 57.7402 937.153 57.5105C877.66 57.4962 829.94 53.779 815.523 43.754C812.579 41.7159 810.999 39.4052 810.999 36.8147C810.999 34.2241 812.443 31.7196 815.278 29.5883C828.931 19.3839 874.935 15.3223 950.18 15.3223C1025.43 15.3223 1070.53 19.9221 1080.72 30.2988C1082.33 31.9206 1083.12 33.6787 1083.12 35.5876C1083.12 37.6184 1082.33 39.4842 1080.78 41.1849C1070.18 52.8676 1023.49 57.1374 944.348 57.4962" stroke="#3E6946" stroke-width="3.00759" stroke-miterlimit="10"/>
<path d="M810.997 110.722C810.997 95.3145 858.254 89.344 947.481 89.2292C869.755 89.179 805.71 84.1055 765.43 72.4802C735.969 63.9621 719.236 51.935 719.236 35.796C719.236 -3.92375 809.417 -16.4102 945.491 -16.4102C1081.57 -16.4102 1174.88 -1.46234 1174.88 36.815C1174.88 53.8941 1158.37 65.9571 1128.82 74.1594C1089.85 84.9881 1028.18 89.1144 951.814 89.222C1040.14 89.2938 1083.15 95.4509 1083.15 109.487C1083.15 125.461 1034.91 131.001 943.965 131.396C869.046 131.719 810.997 126.48 810.997 110.714L810.997 110.722Z" stroke="#3E6946" stroke-width="3.00759" stroke-miterlimit="10"/>
<path d="M948.653 163.135C813.368 163.135 719.263 147.986 719.263 109.702C719.263 92.6799 735.833 80.6671 765.457 72.4863C805.738 84.1116 869.755 89.1851 947.508 89.2353C858.282 89.3502 811.025 95.3207 811.025 110.728C811.025 126.135 869.047 131.732 943.993 131.409C1034.94 131.015 1083.17 125.475 1083.17 109.501C1083.17 95.4642 1040.17 89.3071 951.842 89.2353C1028.23 89.1277 1089.88 85.0014 1128.85 74.1727C1158.23 82.6477 1174.91 94.6174 1174.91 110.735C1174.91 150.663 1084.73 163.149 948.653 163.149L948.653 163.135Z" stroke="#3E6946" stroke-width="3.00759" stroke-miterlimit="10"/>
<path d="M765.459 251.968C773.09 249.858 781.593 248.014 790.886 246.4C828.032 239.941 878.041 237.228 937.153 236.999C877.66 236.984 829.94 233.267 815.523 223.242C812.579 221.204 810.999 218.894 810.999 216.303C810.999 213.712 812.443 211.208 815.278 209.077C828.931 198.872 874.935 194.811 950.18 194.811C1025.43 194.811 1070.53 199.41 1080.72 209.787C1082.33 211.409 1083.12 213.167 1083.12 215.076C1083.12 217.107 1082.33 218.972 1080.78 220.673C1070.18 232.363 1023.49 236.626 944.348 236.984" stroke="#3E6946" stroke-width="3.00759" stroke-miterlimit="10"/>
<path d="M810.997 290.21C810.997 274.803 858.254 268.832 947.481 268.717C869.755 268.667 805.71 263.594 765.43 251.968C735.969 243.45 719.236 231.423 719.236 215.284C719.236 175.565 809.417 163.078 945.491 163.078C1081.57 163.078 1174.88 178.026 1174.88 216.303C1174.88 233.382 1158.37 245.445 1128.82 253.648C1089.85 264.476 1028.18 268.603 951.814 268.71C1040.14 268.782 1083.15 274.939 1083.15 288.976C1083.15 304.95 1034.91 310.49 943.965 310.884C869.046 311.207 810.997 305.969 810.997 290.203L810.997 290.21Z" stroke="#3E6946" stroke-width="3.00759" stroke-miterlimit="10"/>
<path d="M948.653 342.623C813.368 342.623 719.263 327.474 719.263 289.19C719.263 272.168 735.833 260.155 765.457 251.975C805.738 263.6 869.755 268.673 947.508 268.724C858.282 268.838 811.025 274.809 811.025 290.216C811.025 305.623 869.047 311.22 943.993 310.898C1034.94 310.503 1083.17 304.963 1083.17 288.989C1083.17 274.952 1040.17 268.795 951.842 268.724C1028.23 268.616 1089.88 264.49 1128.85 253.661C1158.23 262.136 1174.91 274.106 1174.91 290.223C1174.91 330.151 1084.73 342.637 948.653 342.637L948.653 342.623Z" stroke="#3E6946" stroke-width="3.00759" stroke-miterlimit="10"/>
<path d="M1126.32 400.751C1132.8 398.964 1139.89 397.356 1147.6 395.928C1185.13 388.932 1236.72 386.025 1298.07 385.781C1235.3 385.767 1185.68 381.626 1174.34 370.324C1172.73 368.724 1171.89 366.98 1171.89 365.086C1171.89 363.191 1172.68 361.282 1174.2 359.617C1184.83 348.114 1231.68 343.586 1311.07 343.586C1400.48 343.586 1444.01 349.736 1444.01 363.851C1444.01 379.797 1395.93 385.351 1305.23 385.76" stroke="#3E6946" stroke-width="3.00759" stroke-miterlimit="10"/>
<path d="M1171.88 438.991C1171.88 423.584 1219.14 417.614 1308.37 417.499C1230.64 417.448 1166.6 412.375 1126.32 400.75C1096.86 392.232 1080.12 380.205 1080.12 364.065C1080.12 324.346 1170.3 311.859 1306.38 311.859C1442.45 311.859 1535.77 326.8 1535.77 365.084C1535.77 382.164 1519.25 394.227 1489.71 402.429C1450.74 413.258 1389.06 417.384 1312.7 417.492C1401.03 417.563 1444.03 423.72 1444.03 437.757C1444.03 453.731 1395.8 459.271 1304.85 459.665C1229.93 459.988 1171.88 454.75 1171.88 438.984L1171.88 438.991Z" stroke="#3E6946" stroke-width="3.00759" stroke-miterlimit="10"/>
<path d="M1309.51 491.406C1174.23 491.406 1080.12 476.258 1080.12 437.973C1080.12 420.951 1096.69 408.939 1126.32 400.758C1166.6 412.383 1230.61 417.457 1308.37 417.507C1219.14 417.622 1171.88 423.592 1171.88 438.999C1171.88 454.406 1229.91 460.004 1304.85 459.681C1395.8 459.286 1444.03 453.746 1444.03 437.772C1444.03 423.736 1401.03 417.579 1312.7 417.507C1389.09 417.399 1450.74 413.273 1489.71 402.444C1519.09 410.919 1535.77 422.889 1535.77 439.006C1535.77 478.934 1445.59 491.421 1309.51 491.421L1309.51 491.406Z" stroke="#3E6946" stroke-width="3.00759" stroke-miterlimit="10"/>
<path d="M1126.32 580.231C1132.8 578.444 1139.89 576.844 1147.6 575.416C1185.13 568.419 1236.72 565.506 1298.07 565.262C1235.3 565.248 1185.68 561.107 1174.34 549.805C1172.73 548.204 1171.89 546.46 1171.89 544.566C1171.89 542.671 1172.68 540.763 1174.2 539.098C1184.83 527.594 1231.68 523.066 1311.07 523.066C1400.48 523.066 1444.01 529.216 1444.01 543.332C1444.01 559.284 1395.93 564.831 1305.23 565.24" stroke="#3E6946" stroke-width="3.00759" stroke-miterlimit="10"/>
<path d="M1174.34 623.719C1172.73 622.118 1171.88 620.375 1171.88 618.473C1171.88 616.571 1172.67 614.677 1174.2 613.005C1184.69 601.638 1230.59 597.081 1308.37 596.981C1233.34 596.93 1171.07 592.194 1130.6 581.408C1129.15 581.021 1127.71 580.633 1126.34 580.224C1100.26 572.689 1084.18 562.399 1080.8 548.929C1080.37 547.186 1080.15 545.384 1080.15 543.54C1080.15 541.696 1080.34 539.809 1080.75 538.043C1083.91 524.215 1099.28 514.061 1124.57 506.827C1162.54 495.948 1222.9 491.65 1297.9 491.356C1300.74 491.341 1303.54 491.334 1306.41 491.334C1310.33 491.334 1314.2 491.348 1318.04 491.377C1447.09 492.224 1535.79 507.394 1535.79 544.566C1535.79 561.653 1519.28 573.708 1489.74 581.918C1450.77 592.739 1389.09 596.873 1312.73 596.973C1401.06 597.045 1444.03 603.209 1444.03 617.239C1444.03 633.213 1395.82 638.753 1304.88 639.147C1238.95 639.442 1186.11 635.416 1174.36 623.711L1174.34 623.719Z" stroke="#3E6946" stroke-width="3.00759" stroke-miterlimit="10"/>
<path d="M1309.51 670.895C1233.97 670.895 1171.23 666.173 1130.62 655.322C1102.04 647.694 1084.35 637.038 1080.81 622.858C1080.37 621.107 1080.15 619.306 1080.15 617.447C1080.15 615.588 1080.34 613.723 1080.75 611.95C1083.12 601.624 1092.28 593.35 1107.32 586.805C1112.86 584.38 1119.21 582.191 1126.32 580.225C1127.71 580.626 1129.15 581.021 1130.57 581.409C1171.01 592.194 1233.31 596.923 1308.34 596.981C1230.56 597.081 1184.69 601.631 1174.18 613.005C1172.65 614.677 1171.86 616.5 1171.86 618.473C1171.86 620.447 1172.7 622.112 1174.31 623.719C1186.08 635.43 1238.93 639.449 1304.83 639.155C1395.77 638.76 1443.98 633.22 1443.98 617.246C1443.98 603.21 1401 597.053 1312.68 596.981C1389.04 596.873 1450.71 592.747 1489.68 581.925C1519.06 590.393 1535.74 602.37 1535.74 618.48C1535.74 658.401 1445.53 670.895 1309.49 670.895L1309.51 670.895Z" stroke="#3E6946" stroke-width="3.00759" stroke-miterlimit="10"/>
<path d="M765.459 400.751C773.09 398.642 781.593 396.79 790.886 395.176C828.032 388.724 878.041 386.012 937.153 385.782C877.66 385.768 829.94 382.05 815.523 372.025C812.579 369.987 810.999 367.677 810.999 365.086C810.999 362.496 812.443 359.991 815.278 357.86C828.931 347.655 874.935 343.594 950.18 343.594C1025.43 343.594 1070.53 348.194 1080.72 358.57C1082.33 360.192 1083.12 361.95 1083.12 363.859C1083.12 365.89 1082.33 367.756 1080.78 369.456C1070.18 381.139 1023.49 385.409 944.348 385.768" stroke="#3E6946" stroke-width="3.00759" stroke-miterlimit="10"/>
<path d="M810.997 438.991C810.997 423.584 858.254 417.614 947.481 417.499C869.755 417.448 805.71 412.375 765.43 400.75C735.969 392.232 719.236 380.205 719.236 364.065C719.236 324.346 809.417 311.859 945.491 311.859C1081.57 311.859 1174.88 326.807 1174.88 365.084C1174.88 382.164 1158.37 394.227 1128.82 402.429C1089.85 413.258 1028.18 417.384 951.814 417.492C1040.14 417.563 1083.15 423.72 1083.15 437.757C1083.15 453.731 1034.91 459.271 943.965 459.665C869.046 459.988 810.997 454.75 810.997 438.984L810.997 438.991Z" stroke="#3E6946" stroke-width="3.00759" stroke-miterlimit="10"/>
<path d="M948.653 491.406C813.368 491.406 719.263 476.258 719.263 437.973C719.263 420.951 735.833 408.939 765.457 400.758C805.738 412.383 869.755 417.457 947.508 417.507C858.282 417.622 811.025 423.592 811.025 438.999C811.025 454.406 869.047 460.004 943.993 459.681C1034.94 459.286 1083.17 453.746 1083.17 437.772C1083.17 423.736 1040.17 417.579 951.842 417.507C1028.23 417.399 1089.88 413.273 1128.85 402.444C1158.23 410.919 1174.91 422.889 1174.91 439.006C1174.91 478.934 1084.73 491.421 948.653 491.421L948.653 491.406Z" stroke="#3E6946" stroke-width="3.00759" stroke-miterlimit="10"/>
<path d="M765.459 580.232C773.09 578.122 781.593 576.278 790.886 574.663C828.032 568.205 878.041 565.492 937.153 565.262C877.66 565.248 829.94 561.531 815.523 551.506C812.579 549.468 810.999 547.157 810.999 544.567C810.999 541.976 812.443 539.472 815.278 537.34C828.931 527.136 874.935 523.074 950.18 523.074C1025.43 523.074 1070.53 527.674 1080.72 538.051C1082.33 539.673 1083.12 541.431 1083.12 543.34C1083.12 545.37 1082.33 547.236 1080.78 548.937C1070.18 560.627 1023.49 564.889 944.348 565.248" stroke="#3E6946" stroke-width="3.00759" stroke-miterlimit="10"/>
<path d="M950.208 523.075C874.989 523.075 828.959 527.136 815.305 537.341C816.123 539.651 816.504 542.055 816.504 544.574C816.504 547.093 816.177 549.296 815.523 551.513C829.967 561.531 877.687 565.256 937.154 565.27C878.042 565.5 828.032 568.212 790.886 574.671C785.163 577.304 778.513 579.658 771.019 581.761C769.111 581.265 767.258 580.763 765.432 580.239C740.495 573.042 724.688 563.325 720.41 550.738C719.619 548.442 719.21 546.045 719.21 543.555C719.21 541.065 719.565 538.647 720.273 536.35C724.361 523.175 739.896 513.459 764.832 506.498C802.85 495.87 862.725 491.658 936.936 491.363C939.77 491.349 942.577 491.342 945.439 491.342C949.363 491.342 953.233 491.356 957.076 491.385C1027.52 491.844 1085.96 496.573 1124.49 506.835C1152.97 514.406 1170.58 524.998 1174.12 539.106C1174.58 540.871 1174.8 542.694 1174.8 544.574C1174.8 546.454 1174.64 548.119 1174.26 549.813C1172.02 560.362 1162.78 568.786 1147.52 575.424C1142.51 577.62 1136.84 579.608 1130.51 581.423C1129.97 581.596 1129.37 581.761 1128.77 581.926C1122.23 583.741 1115.03 585.377 1107.24 586.82C1112.77 584.394 1119.12 582.206 1126.24 580.239C1100.15 572.704 1084.08 562.414 1080.7 548.944C1080.26 547.201 1080.04 545.399 1080.04 543.555C1080.04 541.711 1080.23 539.824 1080.64 538.058C1070.45 527.682 1027.42 523.082 950.099 523.082L950.208 523.075Z" stroke="#3E6946" stroke-width="3.00759" stroke-miterlimit="10"/>
<path d="M1080.15 617.454C1080.15 615.559 1080.34 613.73 1080.75 611.957C1082.36 613.579 1083.15 615.337 1083.15 617.246C1083.15 619.284 1082.36 621.157 1080.8 622.858C1080.37 621.107 1080.15 619.305 1080.15 617.447L1080.15 617.454Z" stroke="#3E6946" stroke-width="3.00759" stroke-miterlimit="10"/>
<path d="M815.55 625.426C812.607 623.381 811.026 621.07 811.026 618.472C811.026 615.875 812.471 613.385 815.305 611.246C816.122 613.55 816.504 615.961 816.504 618.472C816.504 620.984 816.177 623.201 815.523 625.426L815.55 625.426Z" stroke="#3E6946" stroke-width="3.00759" stroke-miterlimit="10"/>
<path d="M948.625 670.896C873.843 670.896 811.679 666.274 771.017 655.668C742.865 648.334 725.041 638.144 720.435 624.646C719.645 622.35 719.236 619.946 719.236 617.455C719.236 614.965 719.59 612.554 720.326 610.258C723.133 601.108 731.473 593.616 744.718 587.574C750.659 584.84 757.581 582.407 765.43 580.24C767.256 580.764 769.082 581.274 771.017 581.762C811.488 592.31 873.216 596.939 947.481 596.989C873.816 597.083 828.766 601.166 815.303 611.255C812.442 613.387 811.025 615.791 811.025 618.482C811.025 621.173 812.578 623.383 815.549 625.435C830.592 635.826 881.365 639.443 943.965 639.163C1023.3 638.826 1070.15 634.556 1080.8 622.866C1082.36 621.158 1083.15 619.293 1083.15 617.255C1083.15 615.346 1082.36 613.588 1080.75 611.966C1070.64 601.661 1028.12 597.054 951.814 596.989C1015.4 596.903 1068.73 594.033 1107.32 586.821C1115.11 585.378 1122.31 583.742 1128.85 581.927C1154.8 589.404 1170.82 599.63 1174.2 613.013C1174.66 614.779 1174.88 616.602 1174.88 618.482C1174.88 620.362 1174.72 622.027 1174.34 623.727C1171.34 637.749 1155.99 648.019 1130.62 655.331C1091.24 666.691 1027.69 670.903 948.653 670.903L948.625 670.896Z" stroke="#3E6946" stroke-width="3.00759" stroke-miterlimit="10"/>
<path d="M407.08 72.4793C413.566 70.6924 420.652 69.085 428.365 67.6569C465.892 60.6602 517.482 57.7539 578.829 57.5099C516.065 57.4956 466.437 53.355 455.1 42.0526C453.492 40.4523 452.647 38.7085 452.647 36.814C452.647 34.9196 453.438 33.0107 454.964 31.3459C465.592 19.8426 512.441 15.3144 591.829 15.3145C664.785 15.3145 707.191 19.4048 720.327 28.5831C723.298 30.6498 724.77 32.982 724.77 35.5798C724.77 38.3426 723.325 40.804 720.463 42.9711C706.81 53.2975 660.943 57.1511 585.997 57.4884" stroke="#3E6946" stroke-width="3.00759" stroke-miterlimit="10"/>
<path d="M452.65 110.722C452.65 95.3145 499.907 89.344 589.133 89.2292C511.407 89.179 447.363 84.1055 407.082 72.4802C377.622 63.9621 360.888 51.935 360.888 35.796C360.888 -3.92375 451.069 -16.4102 587.144 -16.4102C723.219 -16.4102 816.533 -1.46234 816.533 36.815C816.533 53.8941 800.018 65.9571 770.475 74.1594C731.504 84.9881 669.83 89.1144 593.466 89.222C681.794 89.2938 724.799 95.4509 724.799 109.487C724.799 125.461 676.561 131.001 585.618 131.396C510.699 131.719 452.65 126.48 452.65 110.714L452.65 110.722Z" stroke="#3E6946" stroke-width="3.00759" stroke-miterlimit="10"/>
<path d="M590.278 163.137C454.993 163.137 360.888 147.988 360.888 109.704C360.888 92.6818 377.458 80.669 407.082 72.4883C447.363 84.1136 511.38 89.1871 589.133 89.2373C499.907 89.3521 452.65 95.3226 452.65 110.73C452.65 126.137 510.672 131.734 585.618 131.411C676.561 131.017 724.799 125.477 724.799 109.503C724.799 95.4662 681.794 89.3091 593.466 89.2373C669.857 89.1297 731.504 85.0034 770.475 74.1747C799.854 82.6496 816.533 94.6194 816.533 110.737C816.533 150.665 726.353 163.151 590.278 163.151L590.278 163.137Z" stroke="#3E6946" stroke-width="3.00759" stroke-miterlimit="10"/>
<path d="M407.08 251.969C413.566 250.183 420.652 248.582 428.365 247.154C465.892 240.158 517.482 237.244 578.829 237C516.065 236.986 466.437 232.845 455.1 221.543C453.492 219.943 452.647 218.199 452.647 216.304C452.647 214.41 453.438 212.501 454.964 210.836C465.592 199.333 512.441 194.805 591.829 194.805C664.785 194.805 707.191 198.895 720.327 208.073C723.298 210.14 724.77 212.472 724.77 215.07C724.77 217.833 723.325 220.294 720.463 222.461C706.81 232.795 660.943 236.641 585.997 236.979" stroke="#3E6946" stroke-width="3.00759" stroke-miterlimit="10"/>
<path d="M452.65 290.21C452.65 274.803 499.907 268.832 589.133 268.717C511.407 268.667 447.363 263.594 407.082 251.968C377.622 243.45 360.888 231.423 360.888 215.284C360.888 175.565 451.069 163.078 587.144 163.078C723.219 163.078 816.533 178.026 816.533 216.303C816.533 233.382 800.018 245.445 770.475 253.648C731.503 264.476 669.83 268.603 593.466 268.71C681.794 268.782 724.799 274.939 724.799 288.976C724.799 304.95 676.561 310.49 585.618 310.884C510.699 311.207 452.65 305.969 452.65 290.203L452.65 290.21Z" stroke="#3E6946" stroke-width="3.00759" stroke-miterlimit="10"/>
<path d="M590.278 342.625C454.993 342.625 360.888 327.476 360.888 289.192C360.888 272.17 377.458 260.157 407.082 251.977C447.363 263.602 511.38 268.675 589.133 268.726C499.907 268.84 452.65 274.811 452.65 290.218C452.65 305.625 510.672 311.222 585.618 310.9C676.561 310.505 724.799 304.965 724.799 288.991C724.799 274.954 681.794 268.797 593.466 268.726C669.857 268.618 731.504 264.492 770.475 253.663C799.854 262.138 816.533 274.108 816.533 290.225C816.533 330.153 726.353 342.639 590.278 342.639L590.278 342.625Z" stroke="#3E6946" stroke-width="3.00759" stroke-miterlimit="10"/>
<path d="M46.2225 72.4793C84.2951 61.9591 144.007 57.797 217.944 57.5099C146.323 57.4956 91.7897 52.1063 91.7897 36.814C91.7897 21.5218 140.001 15.3144 230.971 15.3145C308.289 15.3145 351.321 19.9143 361.514 30.291C363.122 31.9128 363.912 33.6709 363.912 35.5798C363.912 37.6106 363.122 39.4764 361.568 41.1771C350.967 52.8598 304.282 57.1296 225.139 57.4884" stroke="#3E6946" stroke-width="3.00759" stroke-miterlimit="10"/>
<path d="M91.7629 110.722C91.7629 95.3145 139.02 89.344 228.246 89.2292C150.521 89.179 86.4757 84.1055 46.1956 72.4802C16.735 63.9621 0.00155324 51.935 0.00155529 35.796C0.00156032 -3.92375 90.1822 -16.4102 226.257 -16.4102C362.332 -16.4102 455.646 -1.46234 455.646 36.815C455.646 53.8941 439.131 65.9571 409.589 74.1594C370.617 84.9881 308.943 89.1144 232.58 89.222C320.907 89.2938 363.912 95.4509 363.912 109.487C363.912 125.461 315.674 131.001 224.731 131.396C149.812 131.719 91.7629 126.48 91.7629 110.714L91.7629 110.722Z" stroke="#3E6946" stroke-width="3.00759" stroke-miterlimit="10"/>
<path d="M229.391 163.135C94.1066 163.135 0.00154902 147.986 0.00155555 109.702C0.00155846 92.6799 16.5715 80.6671 46.1956 72.4863C86.4757 84.1116 150.493 89.1851 228.246 89.2353C139.02 89.3502 91.7629 95.3207 91.7629 110.728C91.7629 126.135 149.785 131.732 224.731 131.409C315.674 131.015 363.912 125.475 363.912 109.501C363.912 95.4642 320.907 89.3071 232.58 89.2353C308.97 89.1277 370.617 85.0014 409.589 74.1727C438.968 82.6477 455.646 94.6174 455.646 110.735C455.646 150.663 365.466 163.149 229.391 163.149L229.391 163.135Z" stroke="#3E6946" stroke-width="3.00759" stroke-miterlimit="10"/>
<path d="M46.2225 251.969C84.2951 241.457 144.007 237.287 217.944 237C146.323 236.986 91.7897 231.597 91.7897 216.304C91.7897 201.012 140.001 194.805 230.971 194.805C308.289 194.805 351.321 199.405 361.514 209.781C363.122 211.403 363.912 213.161 363.912 215.07C363.912 217.101 363.122 218.967 361.568 220.667C350.967 232.357 304.282 236.62 225.139 236.979" stroke="#3E6946" stroke-width="3.00759" stroke-miterlimit="10"/>
<path d="M91.7629 290.21C91.7629 274.803 139.02 268.832 228.246 268.717C150.521 268.667 86.4757 263.594 46.1956 251.968C16.735 243.45 0.00155024 231.423 0.00155299 215.284C0.00155977 175.565 90.1822 163.078 226.257 163.078C362.332 163.078 455.646 178.026 455.646 216.303C455.646 233.382 439.131 245.445 409.589 253.648C370.617 264.476 308.943 268.603 232.58 268.71C320.907 268.782 363.912 274.939 363.912 288.976C363.912 304.95 315.674 310.49 224.731 310.884C149.812 311.207 91.7629 305.969 91.7629 290.203L91.7629 290.21Z" stroke="#3E6946" stroke-width="3.00759" stroke-miterlimit="10"/>
<path d="M229.391 342.623C94.1066 342.623 0.00154902 327.474 0.00155555 289.19C0.00155846 272.168 16.5715 260.155 46.1956 251.975C86.4757 263.6 150.493 268.673 228.246 268.724C139.02 268.838 91.7629 274.809 91.7629 290.216C91.7629 305.623 149.785 311.22 224.731 310.898C315.674 310.503 363.912 304.963 363.912 288.989C363.912 274.952 320.907 268.795 232.58 268.724C308.97 268.616 370.617 264.49 409.589 253.661C438.968 262.136 455.646 274.106 455.646 290.223C455.646 330.151 365.466 342.637 229.391 342.637L229.391 342.623Z" stroke="#3E6946" stroke-width="3.00759" stroke-miterlimit="10"/>
<path d="M407.08 400.751C413.566 398.964 420.652 397.356 428.365 395.928C465.892 388.932 517.482 386.025 578.829 385.781C516.065 385.767 466.437 381.626 455.1 370.324C453.492 368.724 452.647 366.98 452.647 365.086C452.647 363.191 453.438 361.282 454.964 359.617C465.592 348.114 512.441 343.586 591.829 343.586C664.785 343.586 707.191 347.676 720.327 356.855C723.298 358.921 724.77 361.254 724.77 363.851C724.77 366.614 723.325 369.075 720.463 371.243C706.81 381.569 660.943 385.423 585.997 385.76" stroke="#3E6946" stroke-width="3.00759" stroke-miterlimit="10"/>
<path d="M452.65 438.993C452.65 423.586 499.907 417.615 589.133 417.501C511.407 417.45 447.363 412.377 407.082 400.752C377.622 392.234 360.888 380.206 360.888 364.067C360.888 324.348 451.069 311.861 587.144 311.861C723.219 311.861 816.533 326.809 816.533 365.086C816.533 382.166 800.018 394.229 770.475 402.431C731.503 413.26 669.83 417.386 593.466 417.494C681.794 417.565 724.799 423.722 724.799 437.759C724.799 453.733 676.561 459.273 585.618 459.667C510.699 459.99 452.65 454.752 452.65 438.986L452.65 438.993Z" stroke="#3E6946" stroke-width="3.00759" stroke-miterlimit="10"/>
<path d="M590.278 491.406C454.993 491.406 360.888 476.258 360.888 437.973C360.888 420.951 377.458 408.939 407.082 400.758C447.363 412.383 511.38 417.457 589.133 417.507C499.907 417.622 452.65 423.592 452.65 438.999C452.65 454.406 510.672 460.004 585.618 459.681C676.561 459.286 724.799 453.746 724.799 437.772C724.799 423.736 681.794 417.579 593.466 417.507C669.857 417.399 731.504 413.273 770.475 402.444C799.854 410.919 816.533 422.889 816.533 439.006C816.533 478.934 726.353 491.421 590.278 491.421L590.278 491.406Z" stroke="#3E6946" stroke-width="3.00759" stroke-miterlimit="10"/>
<path d="M407.08 580.231C413.566 578.444 420.652 576.844 428.365 575.416C465.892 568.419 517.482 565.506 578.829 565.262C516.065 565.248 466.437 561.107 455.1 549.805C453.492 548.204 452.647 546.46 452.647 544.566C452.647 542.671 453.438 540.763 454.964 539.098C465.592 527.594 512.441 523.066 591.829 523.066C664.785 523.066 707.191 527.157 720.327 536.335C723.298 538.402 724.77 540.734 724.77 543.332C724.77 546.095 723.325 548.556 720.463 550.723C706.81 561.057 660.943 564.903 585.997 565.24" stroke="#3E6946" stroke-width="3.00759" stroke-miterlimit="10"/>
<path d="M455.073 623.721C453.465 622.12 452.62 620.377 452.62 618.475C452.62 616.573 453.411 614.679 454.937 613.007C465.429 601.64 511.324 597.083 589.104 596.982C514.076 596.932 451.803 592.196 411.332 581.41C409.887 581.023 408.443 580.635 407.08 580.226C380.999 572.691 364.92 562.401 361.54 548.931C361.104 547.188 360.886 545.386 360.886 543.542C360.886 541.698 361.077 539.81 361.486 538.045C364.647 524.217 380.018 514.063 405.309 506.829C443.273 495.95 503.638 491.652 578.639 491.357C581.473 491.343 584.28 491.336 587.142 491.336C591.066 491.336 594.936 491.35 598.779 491.379C668.438 491.831 726.351 496.46 764.887 506.492C792.93 513.768 810.726 523.894 815.305 537.342C816.122 539.653 816.504 542.057 816.504 544.575C816.504 547.094 816.177 549.297 815.523 551.515C812.798 560.887 804.349 568.529 790.886 574.672C785.163 577.306 778.513 579.659 771.019 581.762C770.828 581.819 770.637 581.877 770.446 581.927C762.761 584.065 754.149 585.938 744.719 587.575C706.51 594.227 654.702 596.896 593.437 596.982C665.44 597.04 707.301 601.145 720.328 610.258C723.271 612.325 724.743 614.65 724.743 617.248C724.743 620.018 723.298 622.472 720.437 624.646C706.756 634.994 660.78 638.833 585.588 639.156C519.663 639.451 466.819 635.425 455.073 623.721Z" stroke="#3E6946" stroke-width="3.00759" stroke-miterlimit="10"/>
<path d="M590.276 670.895C514.73 670.895 451.994 666.173 411.386 655.322C382.798 647.694 365.111 637.038 361.568 622.858C361.132 621.107 360.914 619.306 360.914 617.447C360.914 615.588 361.104 613.723 361.513 611.95C363.884 601.624 373.041 593.35 388.085 586.805C393.617 584.38 399.967 582.191 407.08 580.225C408.47 580.626 409.915 581.021 411.332 581.409C451.776 592.194 514.076 596.923 589.104 596.981C511.324 597.081 465.457 601.631 454.937 613.005C453.411 614.677 452.62 616.5 452.62 618.473C452.62 620.447 453.465 622.112 455.073 623.719C466.846 635.43 519.69 639.449 585.588 639.155C660.78 638.832 706.756 634.985 720.437 624.645C723.326 622.47 724.743 620.023 724.743 617.246C724.743 614.648 723.271 612.323 720.328 610.257C707.301 601.143 665.44 597.038 593.437 596.981C654.702 596.895 706.51 594.225 744.719 587.573C754.122 585.937 762.734 584.064 770.446 581.925C795.246 589.073 810.999 598.732 815.305 611.254C816.122 613.558 816.504 615.969 816.504 618.48C816.504 620.992 816.177 623.209 815.523 625.434C811.598 638.796 796.037 648.634 771.019 655.667C731.583 666.761 668.52 670.895 590.276 670.895Z" stroke="#3E6946" stroke-width="3.00759" stroke-miterlimit="10"/>
<path d="M46.2225 400.751C84.2951 390.231 144.007 386.068 217.944 385.781C146.323 385.767 91.7897 380.378 91.7897 365.086C91.7897 349.793 140.001 343.586 230.971 343.586C308.289 343.586 351.321 348.186 361.514 358.562C363.122 360.184 363.912 361.942 363.912 363.851C363.912 365.882 363.122 367.748 361.568 369.449C350.967 381.131 304.282 385.401 225.139 385.76" stroke="#3E6946" stroke-width="3.00759" stroke-miterlimit="10"/>
<path d="M91.7629 438.991C91.7629 423.584 139.02 417.614 228.246 417.499C150.521 417.448 86.4757 412.375 46.1956 400.75C16.735 392.232 0.00155024 380.205 0.00155299 364.065C0.00155977 324.346 90.1822 311.859 226.257 311.859C362.332 311.859 455.646 326.807 455.646 365.084C455.646 382.164 439.131 394.227 409.589 402.429C370.617 413.258 308.943 417.384 232.58 417.492C320.907 417.563 363.912 423.72 363.912 437.757C363.912 453.731 315.674 459.271 224.731 459.665C149.812 459.988 91.7629 454.75 91.7629 438.984L91.7629 438.991Z" stroke="#3E6946" stroke-width="3.00759" stroke-miterlimit="10"/>
<path d="M229.391 491.406C94.1066 491.406 0.00154902 476.258 0.00155555 437.973C0.00155846 420.951 16.5715 408.939 46.1956 400.758C86.4757 412.383 150.493 417.457 228.246 417.507C139.02 417.622 91.7629 423.592 91.7629 438.999C91.7629 454.406 149.785 460.004 224.731 459.681C315.674 459.286 363.912 453.746 363.912 437.772C363.912 423.736 320.907 417.579 232.58 417.507C308.97 417.399 370.617 413.273 409.589 402.444C438.968 410.919 455.646 422.889 455.646 439.006C455.646 478.934 365.466 491.421 229.391 491.421L229.391 491.406Z" stroke="#3E6946" stroke-width="3.00759" stroke-miterlimit="10"/>
<path d="M46.2225 580.233C84.2951 569.72 144.007 565.551 217.944 565.264C146.323 565.249 91.7897 559.86 91.7897 544.568C91.7897 529.276 140.001 523.068 230.971 523.068C308.289 523.068 351.321 527.668 361.514 538.045C363.122 539.667 363.912 541.425 363.912 543.334C363.912 545.364 363.122 547.23 361.568 548.931C350.967 560.621 304.282 564.883 225.139 565.242" stroke="#3E6946" stroke-width="3.00759" stroke-miterlimit="10"/>
<path d="M91.7629 618.481C91.7629 603.074 139.02 597.104 228.246 596.989C150.521 596.939 86.4757 591.865 46.1956 580.24C16.735 571.722 0.00155024 559.695 0.00155299 543.556C0.00155977 503.836 90.1822 491.35 226.257 491.35C362.332 491.35 455.646 506.297 455.646 544.575C455.646 561.654 439.131 573.717 409.589 581.919C370.617 592.748 308.943 596.874 232.58 596.982C320.907 597.054 363.912 603.211 363.912 617.247C363.912 633.221 315.674 638.761 224.731 639.156C149.812 639.479 91.7629 634.24 91.7629 618.474L91.7629 618.481Z" stroke="#3E6946" stroke-width="3.00759" stroke-miterlimit="10"/>
<path d="M229.391 670.895C94.1066 670.895 0.00154902 655.746 0.00155555 617.461C0.00155846 600.44 16.5715 588.427 46.1956 580.246C86.4757 591.871 150.493 596.945 228.246 596.995C139.02 597.11 91.7629 603.08 91.7629 618.488C91.7629 633.895 149.785 639.492 224.731 639.169C315.674 638.774 363.912 633.234 363.912 617.26C363.912 603.224 320.907 597.067 232.58 596.995C308.97 596.887 370.617 592.761 409.589 581.932C438.968 590.407 455.646 602.377 455.646 618.495C455.646 658.423 365.466 670.909 229.391 670.909L229.391 670.895Z" stroke="#3E6946" stroke-width="3.00759" stroke-miterlimit="10"/>
</g>
</g>
<defs>
<clipPath id="clip0_853_4558">
<rect width="1355" height="633" rx="35" fill="white"/>
</clipPath>
</defs>
</svg>
