<svg width="707" height="707" viewBox="0 0 707 707" fill="none" xmlns="http://www.w3.org/2000/svg">
<path d="M255.68 306.068V383.894H290.601V400.947H234.98V306.068H255.693H255.68Z" fill="#EEF1C9"/>
<path d="M287.757 363.042C287.757 339.498 297.644 323.121 322.941 323.121C348.238 323.121 357.587 338.821 357.587 362.503C357.587 386.185 347.576 402.424 322.265 402.424C296.953 402.424 287.757 386.723 287.757 363.042ZM322.941 386.461C333.367 386.461 336.612 378.88 336.612 363.318C336.612 347.756 332.69 339.098 322.126 339.098C312.792 339.098 308.732 346.679 308.732 362.241C308.732 377.803 312.654 386.461 322.941 386.461Z" fill="#EEF1C9"/>
<path d="M361.785 298.35V400.947H382.222V298.35H361.785Z" fill="#EEF1C9"/>
<path d="M465.211 322.846C455.2 322.846 448.572 328.259 445.451 335.702H444.912L440.714 324.475H403.597L382.76 359.936V360.474L403.335 400.933H445.05V349.096C449.51 345.437 456.553 343.006 462.919 343.006C465.625 343.006 469.008 343.144 471.715 343.683V323.509C469.947 323.108 467.379 322.832 465.211 322.832V322.846ZM424.738 395.962L404.536 360.198V359.66L424.738 328.024V395.962Z" fill="#EEF1C9"/>
<path d="M528.109 348.419V379.005C528.109 383.341 529.738 385.232 533.384 385.232H535.552V399.303C532.307 401.333 528.786 401.872 525.403 401.872C518.098 401.872 513.9 398.351 511.594 393.614H511.055C508.211 397.398 502.535 402.134 491.571 402.134C476.686 402.134 468.967 391.985 468.967 381.021C468.967 363.429 484.805 355.309 508.887 356.524V350.573C508.887 342.053 504.151 339.471 497.923 339.471C490.619 339.471 486.683 343.669 484.791 348.129L470.306 337.441C473.289 333.243 480.87 323.094 497.785 323.094C517.269 323.094 528.095 329.86 528.095 348.405L528.109 348.419ZM508.887 370.347C495.493 369.394 488.851 372.515 488.851 379.143C488.851 383.479 491.834 386.586 497.109 386.586C502.384 386.586 506.581 384.28 508.887 381.173V370.347Z" fill="#EEF1C9"/>
<path d="M578.856 312.958C575.749 312.143 572.628 311.605 570.06 311.605C564.371 311.605 562.341 314.311 562.341 319.586V324.461H578.994V338.532H561.941V400.919H541.504V338.532H530.264V324.461H541.904V319.048C541.904 306.33 550.3 295.09 569.245 295.09C574.796 295.09 578.442 295.628 581.701 296.443L578.856 312.958Z" fill="#EEF1C9"/>
<path d="M581.425 376.437V338.809L571.745 338.381L571.676 327.32L581.549 323.26L588.591 305.254H601.585V324.475H620.669V340.038H601.585V376.99C601.585 382.264 604.568 384.971 609.567 384.971C612.812 384.971 617.009 383.894 619.992 381.588L625.267 396.888C622.699 398.78 616.747 401.624 604.016 401.624C591.284 401.624 581.411 394.996 581.411 376.451L581.425 376.437Z" fill="#EEF1C9"/>
<path d="M81.7197 353.998C81.7197 310.722 99.878 280.619 146.385 280.619C192.893 280.619 210.057 309.465 210.057 353.004C210.057 396.542 191.65 426.383 145.143 426.383C98.6353 426.383 81.7197 397.536 81.7197 353.998ZM146.385 397.026C165.538 397.026 171.503 383.093 171.503 354.495C171.503 325.898 164.295 309.976 144.894 309.976C127.73 309.976 120.273 323.909 120.273 352.507C120.273 381.104 127.481 397.026 146.385 397.026Z" fill="#EEF1C9"/>
<path d="M146.122 304.342C144.41 304.342 142.794 304.466 141.262 304.742C141.262 304.742 141.248 304.742 141.234 304.742C132.051 306.289 125.837 312.309 122.026 321.506C118.698 329.542 117.207 340.023 117.207 352.05C117.207 380.344 123.987 399.11 145.556 399.11C167.125 399.11 174.582 379.543 174.582 351.401C174.582 323.26 167.802 304.342 146.122 304.342ZM145.446 323.425C154.117 323.425 157.128 333.45 157.335 352.382C157.514 367.958 154.67 380.027 146.108 380.027C137.547 380.027 134.426 370.002 134.426 351.07C134.426 332.139 137.768 323.425 145.432 323.425H145.446Z" fill="#007E75"/>
<path d="M146.039 321.242C144.935 321.242 143.899 321.325 142.919 321.491C142.919 321.491 142.919 321.491 142.905 321.491C136.995 322.485 133.004 326.351 130.546 332.275C128.406 337.44 127.453 344.178 127.453 351.925C127.453 370.125 131.817 382.179 145.68 382.179C159.544 382.179 164.35 369.6 164.35 351.497C164.35 333.394 159.986 321.242 146.053 321.242H146.039ZM145.598 333.518C151.176 333.518 153.109 339.967 153.248 352.132C153.358 362.143 151.535 369.918 146.026 369.918C140.516 369.918 138.514 363.469 138.514 351.304C138.514 339.138 140.654 333.518 145.598 333.518Z" fill="#EEF1C9"/>
</svg>
