<svg width="74" height="74" viewBox="0 0 74 74" fill="none" xmlns="http://www.w3.org/2000/svg">
<mask id="mask0_1119_5350" style="mask-type:alpha" maskUnits="userSpaceOnUse" x="0" y="0" width="74" height="74">
<rect width="74" height="74" fill="#D9D9D9"/>
</mask>
<g mask="url(#mask0_1119_5350)">
<path d="M28.3421 26.8018V22.1768H54.9066V26.8018H28.3421ZM28.3421 35.6964V31.0714H54.9066V35.6964H28.3421ZM36.7619 66.2923H18.4993C16.3451 66.2923 14.5218 65.5462 13.0295 64.0538C11.5372 62.5615 10.791 60.7382 10.791 58.584V49.6901H20.041V7.70898H63.2077V33.787C62.4168 33.7434 61.6331 33.7917 60.8566 33.932C60.0796 34.0723 59.3217 34.3045 58.5827 34.6288V12.334H24.666V49.6901H42.1578L37.5328 54.3143H15.416V58.584C15.416 59.4576 15.7115 60.1899 16.3025 60.7809C16.8934 61.3718 17.6257 61.6673 18.4993 61.6673H36.7619V66.2923ZM43.5221 66.2923V58.1454L60.2608 41.483C60.6441 41.0997 61.0591 40.8299 61.5057 40.6737C61.9523 40.518 62.3991 40.4401 62.8462 40.4401C63.3241 40.4401 63.7915 40.5308 64.2483 40.7122C64.7046 40.8941 65.1147 41.167 65.4786 41.5308L68.3306 44.4122C68.6626 44.7961 68.9196 45.2113 69.1015 45.6579C69.2834 46.1044 69.3743 46.551 69.3743 46.9976C69.3743 47.4442 69.2914 47.8987 69.1254 48.3612C68.9594 48.8237 68.6945 49.2466 68.3306 49.63L51.6691 66.2923H43.5221ZM47.1982 62.6162H50.1274L60.1359 52.5591L58.7191 51.0946L57.2838 49.6485L47.1982 59.687V62.6162ZM58.7191 51.0946L57.2838 49.6485L60.1359 52.5591L58.7191 51.0946Z" fill="#1C1B1F"/>
</g>
</svg>
