<svg width="74" height="74" viewBox="0 0 74 74" fill="none" xmlns="http://www.w3.org/2000/svg">
<mask id="mask0_1119_5346" style="mask-type:alpha" maskUnits="userSpaceOnUse" x="0" y="0" width="74" height="74">
<rect width="74" height="74" fill="#D9D9D9"/>
</mask>
<g mask="url(#mask0_1119_5346)">
<path d="M37.0004 33.739C34.6483 33.739 32.6472 32.9139 30.9971 31.2638C29.3465 29.6132 28.5212 27.6119 28.5212 25.2598C28.5212 22.9077 29.3465 20.9066 30.9971 19.2565C32.6472 17.6059 34.6483 16.7806 37.0004 16.7806C39.3524 16.7806 41.3535 17.6059 43.0036 19.2565C44.6542 20.9066 45.4795 22.9077 45.4795 25.2598C45.4795 27.6119 44.6542 29.6132 43.0036 31.2638C41.3535 32.9139 39.3524 33.739 37.0004 33.739ZM37.0004 29.114C38.0718 29.114 38.9819 28.7396 39.7306 27.9908C40.4799 27.2416 40.8545 26.3312 40.8545 25.2598C40.8545 24.1888 40.4799 23.2787 39.7306 22.5295C38.9819 21.7802 38.0718 21.4056 37.0004 21.4056C35.9289 21.4056 35.0188 21.7802 34.2701 22.5295C33.5208 23.2787 33.1462 24.1888 33.1462 25.2598C33.1462 26.3312 33.5208 27.2416 34.2701 27.9908C35.0188 28.7396 35.9289 29.114 37.0004 29.114ZM19.2712 51.0534V45.9659C19.2712 44.9854 19.5063 44.084 19.9765 43.2618C20.4472 42.4396 21.1055 41.7754 21.9514 41.2692C24.2048 39.9532 26.5864 38.9423 29.0962 38.2368C31.6066 37.5312 34.2413 37.1784 37.0004 37.1784C39.7399 37.1784 42.3697 37.5312 44.8898 38.2368C47.4094 38.9423 49.7959 39.9532 52.0493 41.2692C52.8757 41.7754 53.5288 42.4445 54.0088 43.2765C54.4893 44.1085 54.7295 45.0049 54.7295 45.9659V51.0534H19.2712ZM37.0004 41.8034C34.7947 41.8034 32.6107 42.0997 30.4483 42.6922C28.2858 43.2852 26.1966 44.155 24.1806 45.3015V46.4577H49.8201V45.2722C47.8236 44.1257 45.7393 43.2608 43.5671 42.6775C41.3949 42.0948 39.206 41.8034 37.0004 41.8034ZM65.4441 25.1295C63.851 21.3586 61.6236 18.0471 58.7617 15.195C55.8999 12.3429 52.603 10.1301 48.8712 8.5566L50.668 4.27539C55.0715 6.14543 58.8684 8.67351 62.0586 11.8596C65.2483 15.0457 67.8136 18.8701 69.7546 23.3327L65.4441 25.1295ZM8.5566 25.1295L4.27539 23.3327C6.17678 18.8896 8.72259 15.0781 11.9128 11.8982C15.103 8.7177 18.9097 6.17678 23.3327 4.27539L25.1295 8.5566C21.3781 10.1497 18.0764 12.3722 15.2243 15.2243C12.3722 18.0764 10.1497 21.3781 8.5566 25.1295ZM23.3034 69.7253C18.9194 67.8948 15.1125 65.347 11.8827 62.0817C8.65347 58.817 6.11768 55.0024 4.27539 50.6379L8.5566 48.8712C10.1497 52.6226 12.3722 55.9243 15.2243 58.7764C18.0764 61.6285 21.3781 63.851 25.1295 65.4441L23.3034 69.7253ZM50.6379 69.7253L48.8712 65.4441C52.6226 63.851 55.9243 61.6285 58.7764 58.7764C61.6285 55.9243 63.851 52.6226 65.4441 48.8712L69.7253 50.668C67.8553 55.0715 65.3025 58.883 62.0671 62.1025C58.8316 65.3226 55.0219 67.8635 50.6379 69.7253Z" fill="#1C1B1F"/>
</g>
</svg>
