<svg width="74" height="74" viewBox="0 0 74 74" fill="none" xmlns="http://www.w3.org/2000/svg">
<mask id="mask0_1119_5407" style="mask-type:alpha" maskUnits="userSpaceOnUse" x="0" y="0" width="74" height="74">
<rect width="74" height="74" fill="#D9D9D9"/>
</mask>
<g mask="url(#mask0_1119_5407)">
<path d="M27.1698 67.4177L21.6676 58.1446L11.2197 55.8552L12.2395 45.0998L5.16016 36.9999L12.2395 28.9L11.2197 18.1445L21.6676 15.8552L27.1698 6.58203L37.001 10.7561L46.8322 6.58203L52.3344 15.8552L62.7823 18.1445L61.7625 28.9L68.8418 36.9999L61.7625 45.0998L62.7823 55.8552L52.3344 58.1446L46.8322 67.4177L37.001 63.2437L27.1698 67.4177ZM29.1385 61.5124L37.001 58.1801L44.9583 61.5124L49.3343 54.1124L57.8135 52.1676L57.0426 43.4749L62.7468 36.9999L57.0426 30.4301L57.8135 21.7374L49.3343 19.8874L44.8635 12.4874L37.001 15.8197L29.0437 12.4874L24.6676 19.8874L16.1885 21.7374L16.9593 30.4301L11.2551 36.9999L16.9593 43.4749L16.1885 52.2624L24.6676 54.1124L29.1385 61.5124ZM33.7635 46.8781L50.1167 30.5249L46.8676 27.181L33.7635 40.2852L27.1343 33.7508L23.8852 36.9999L33.7635 46.8781Z" fill="#1C1B1F"/>
</g>
</svg>
